<?xml version="1.0" encoding="UTF-8"?>
<svg version="1.1" xmlns="http://www.w3.org/2000/svg" width="1083" height="1083">
<path d="M0 0 C6.00333642 0.00204993 12.00666978 -0.00064701 18.01000558 -0.00314737 C31.02164295 -0.00837618 44.03327537 -0.0079717 57.04491319 -0.00506845 C68.4286785 -0.00254123 79.812442 -0.0019016 91.19620752 -0.0030911 C91.95475328 -0.00316748 92.71329904 -0.00324387 93.49483103 -0.00332257 C96.57485232 -0.00363396 99.65487362 -0.00395237 102.73489491 -0.00428233 C131.55224544 -0.00733265 160.36959284 -0.00458136 189.18694288 0.00081457 C214.73575701 0.0055621 240.28456614 0.00513211 265.83338022 0.00035357 C294.61102551 -0.00501102 323.38866805 -0.0071191 352.16631377 -0.00403416 C355.23848335 -0.00371349 358.31065293 -0.00340065 361.38282251 -0.0030911 C362.13913919 -0.00301202 362.89545586 -0.00293294 363.67469123 -0.00285147 C375.04970009 -0.00171839 386.42470694 -0.00303597 397.79971552 -0.00557065 C410.74080371 -0.00844011 423.68188623 -0.00769329 436.62297373 -0.00228991 C443.21624463 0.00037289 449.80950767 0.00138831 456.4027791 -0.00193906 C462.45248189 -0.00494581 468.50216536 -0.00323725 474.55186643 0.00203849 C476.72568764 0.00314413 478.89951052 0.00261339 481.07333063 0.00016271 C520.51125359 -0.04084466 520.51125359 -0.04084466 536.51306772 2.63072467 C537.52619028 2.79886676 538.53931284 2.96700885 539.58313608 3.14024615 C568.50839569 8.36124563 595.99941348 19.825647 620.38806772 36.13072467 C621.33432016 36.76276813 621.33432016 36.76276813 622.29968882 37.40758014 C631.1594639 43.39593696 639.38240859 50.0506891 647.38806772 57.13072467 C647.92238413 57.60187701 648.45670053 58.07302936 649.00720835 58.55845904 C654.57332642 63.49191073 659.97358267 68.47210124 664.75525522 74.18931842 C666.52744238 76.29644047 668.39293543 78.29774841 670.26306772 80.31822467 C675.19326819 85.86707964 679.32549145 91.93630145 683.38806772 98.13072467 C684.0351771 99.11556842 684.68228647 100.10041217 685.34900522 101.11509967 C700.62925087 125.18928261 711.40567989 150.98612927 716.38806772 179.13072467 C716.56084167 180.0821427 716.73361562 181.03356074 716.91162515 182.01380962 C718.92275362 194.77907362 718.66624236 207.55944988 718.64203501 220.45196795 C718.64434158 223.12908558 718.6474379 225.80619186 718.6514895 228.48330635 C718.65868177 234.28661631 718.65851298 240.089889 718.65339518 245.89320064 C718.64580529 254.52333764 718.64971063 263.15344342 718.65581179 271.78358024 C718.66632621 287.20115184 718.66543719 302.61870682 718.65965397 318.03627999 C718.65461723 331.53055922 718.65331207 345.02483237 718.65569925 358.51911235 C718.65592841 359.86325593 718.65592841 359.86325593 718.65616219 361.23455393 C718.6567849 364.87239069 718.65742171 368.51022745 718.65808172 372.1480642 C718.66419639 406.25742296 718.65865837 440.36677116 718.64788793 474.47612829 C718.63839954 504.75544928 718.63924432 535.03475344 718.64880991 565.31407428 C718.65952881 599.35765177 718.66376025 633.40121994 718.65758538 667.44479889 C718.65694398 671.07682915 718.6563183 674.70885942 718.65569925 678.34088969 C718.6555411 679.23514323 718.65538294 680.12939678 718.65522 681.05074891 C718.65294879 694.53180472 718.65559868 708.01285377 718.66065836 721.49390864 C718.66638598 736.83081039 718.66492795 752.16769297 718.65409687 767.50459234 C718.64824048 776.07921027 718.64781745 784.65378667 718.65538922 793.22840349 C718.65989561 798.96644922 718.65704407 804.70446188 718.64837968 810.44250274 C718.64365291 813.70481026 718.64304895 816.9670202 718.64919165 820.22932772 C718.68069694 838.35900118 718.13100451 855.89650569 713.70056772 873.56822467 C713.43929087 874.62606158 713.17801401 875.6838985 712.90881968 876.77379107 C704.2462561 910.7322701 687.01728066 940.99053669 662.95447397 966.35338092 C660.42701094 968.97958488 660.42701094 968.97958488 658.66541147 971.50181842 C658.24388803 972.03935748 657.8223646 972.57689654 657.38806772 973.13072467 C656.72806772 973.13072467 656.06806772 973.13072467 655.38806772 973.13072467 C655.05806772 974.12072467 654.72806772 975.11072467 654.38806772 976.13072467 C652.75593016 977.61083536 651.05716583 979.01831185 649.32556772 980.38072467 C645.91262808 983.09876166 642.55921991 985.82688396 639.32556772 988.75572467 C634.92903216 992.61480799 630.27838873 995.92477799 625.38806772 999.13072467 C624.78269175 999.52775592 624.17731577 999.92478717 623.55359507 1000.33384967 C583.36660562 1026.42444952 541.62810359 1035.48302112 494.37120676 1035.38469195 C491.92117854 1035.38700188 489.47115101 1035.39018195 487.0211249 1035.39414644 C481.73558159 1035.40070969 476.4500922 1035.4011931 471.16455126 1035.39605212 C463.30428528 1035.38842794 455.44405334 1035.39238504 447.58378753 1035.39846874 C433.53851861 1035.40895634 419.49326797 1035.40810506 405.44799735 1035.40231091 C393.15684538 1035.39726572 380.86570008 1035.39597294 368.57454729 1035.3983562 C367.75700354 1035.39850897 366.93945979 1035.39866174 366.09714199 1035.39881914 C362.77788721 1035.39944189 359.45863243 1035.4000787 356.13937766 1035.40073867 C325.04825521 1035.40684675 293.95714436 1035.4013254 262.86602371 1035.39054487 C235.28425417 1035.38105387 207.70250311 1035.38190482 180.12073374 1035.39146686 C149.08239333 1035.40219143 118.04406316 1035.40641434 87.00572115 1035.40024233 C83.69307157 1035.39960096 80.38042198 1035.39897527 77.06777239 1035.3983562 C76.25220304 1035.39819804 75.4366337 1035.39803989 74.59635013 1035.39787694 C62.3166124 1035.3956084 50.0368821 1035.39825055 37.7571454 1035.40331531 C23.78596243 1035.40904921 9.81480049 1035.40757142 -4.15637989 1035.39675382 C-11.96166666 1035.3909086 -19.76690782 1035.39045805 -27.57219335 1035.39804617 C-33.41886702 1035.40310013 -39.26550107 1035.39756543 -45.11217021 1035.38809702 C-47.46314857 1035.38587943 -49.81413311 1035.38696192 -52.16510744 1035.39184859 C-70.9767013 1035.42792305 -89.65942422 1034.78367989 -108.04943228 1030.50572467 C-109.74193106 1030.11876422 -109.74193106 1030.11876422 -111.46862173 1029.72398639 C-127.71635951 1025.85030814 -143.04978071 1020.00671473 -157.75597525 1012.11314654 C-159.61051707 1011.13147379 -161.48297303 1010.19736514 -163.36583853 1009.27134967 C-172.65796269 1004.62830961 -180.75317746 998.87302822 -188.90978384 992.46275592 C-190.32532085 991.35501496 -191.75938654 990.27100063 -193.19786978 989.19322467 C-235.33810758 957.55001361 -265.45563645 908.18279622 -272.92728278 855.9251219 C-274.78099262 841.26139252 -274.89462724 826.67199965 -274.86589956 811.91174579 C-274.8682082 809.30670131 -274.87138741 806.70165749 -274.87535405 804.09661502 C-274.88252374 798.46618225 -274.88239171 792.83578795 -274.87725973 787.2053535 C-274.86964884 778.83220182 -274.87358592 770.45908218 -274.87967635 762.08593068 C-274.89017438 747.12530925 -274.88930839 732.16470497 -274.88351852 717.20408194 C-274.87847652 704.11073362 -274.87717907 691.01739156 -274.87956381 677.92404246 C-274.87971658 677.05368006 -274.87986935 676.18331765 -274.88002675 675.28658063 C-274.88064948 671.75299922 -274.88128629 668.21941781 -274.88194628 664.6858364 C-274.88805695 631.57400679 -274.88252909 598.46218807 -274.87175248 565.35036014 C-274.86226293 535.96976944 -274.86311068 506.58919608 -274.87267447 477.20860553 C-274.88339749 444.15672467 -274.88762265 411.10485342 -274.88144994 378.05297107 C-274.88080856 374.52572159 -274.88018287 370.99847212 -274.87956381 367.47122264 C-274.87940565 366.60280058 -274.8792475 365.73437851 -274.87908455 364.83964063 C-274.8768152 351.75921709 -274.87945972 338.67880052 -274.88452291 325.59837794 C-274.89025515 310.7158617 -274.88878266 295.83336519 -274.87796143 280.95085139 C-274.87211307 272.63456527 -274.87167026 264.31832197 -274.87925378 256.00203702 C-274.88430315 249.77488528 -274.87877936 243.54778334 -274.86930463 237.3206377 C-274.86708492 234.81482261 -274.86817443 232.30900173 -274.8730562 229.80319042 C-274.97561113 172.75040512 -258.9577909 120.36937831 -220.61193228 77.13072467 C-219.40150259 75.75400592 -219.40150259 75.75400592 -218.16661978 74.34947467 C-211.41446176 66.75043581 -204.39577445 59.67114157 -196.61193228 53.13072467 C-195.88635122 52.51052447 -195.88635122 52.51052447 -195.14611197 51.87779498 C-137.29416839 2.68779792 -72.32618523 -0.03661109 0 0 Z " fill="#0B1533" transform="translate(322.61193227767944,22.869275331497192)"/>
<path d="M0 0 C1.92831009 -0.00913666 1.92831009 -0.00913666 3.89557594 -0.01845789 C7.43489269 -0.03474736 10.97398509 -0.03256204 14.51332605 -0.02708292 C18.34259558 -0.02439872 22.17180717 -0.03897125 26.00105286 -0.05117798 C33.49536778 -0.0721828 40.98960526 -0.07677541 48.48394615 -0.07499009 C54.58615892 -0.07367881 60.68834769 -0.07750527 66.79055595 -0.08491516 C68.55323837 -0.08701458 70.31592079 -0.08911218 72.07860321 -0.09120798 C73.39500953 -0.09277327 73.39500953 -0.09277327 74.73800992 -0.09437019 C91.32185943 -0.11325606 107.90566468 -0.11222878 124.48952048 -0.10540086 C139.60623161 -0.09983904 154.72277253 -0.12059552 169.83944393 -0.15376133 C185.40472308 -0.18764261 200.96992108 -0.20264796 216.53523773 -0.1980443 C225.25613488 -0.19581252 233.97687519 -0.20085017 242.69774055 -0.22593689 C250.13091932 -0.24713862 257.56385549 -0.25035897 264.99704487 -0.2316373 C268.77762715 -0.22259001 272.55775955 -0.22098836 276.33830452 -0.24199295 C294.68345464 -0.337171 311.91672672 1.17117221 329.81761169 5.39440918 C331.72038631 5.82915247 333.62321431 6.26366214 335.52610111 6.69791412 C352.29594471 10.54851155 367.65124005 16.29924291 382.81761169 24.39440918 C383.81534607 24.92163574 384.81308044 25.4488623 385.84104919 25.99206543 C388.51743932 27.42995411 391.16838011 28.90719085 393.81761169 30.39440918 C394.69933044 30.86749512 395.58104919 31.34058105 396.48948669 31.82800293 C411.86592391 40.34451028 425.59882834 51.40492019 438.09300232 63.70495605 C439.76877136 65.34656446 441.46894509 66.95836225 443.17698669 68.56628418 C470.50868844 94.61871609 487.01730568 128.70830293 497.81761169 164.39440918 C498.10184998 165.32374268 498.38608826 166.25307617 498.67893982 167.21057129 C500.6508516 173.98871373 501.67991198 180.69741276 502.44261169 187.70690918 C502.62980774 189.36907471 502.62980774 189.36907471 502.82078552 191.06481934 C503.16470676 194.17357523 503.49397233 197.2834864 503.81761169 200.39440918 C504.02063904 202.26806152 504.02063904 202.26806152 504.22776794 204.17956543 C506.56652944 230.2353449 505.31099951 257.24116588 497.81761169 282.39440918 C497.51862976 283.44676758 497.51862976 283.44676758 497.21360779 284.52038574 C489.14584862 312.82896641 476.51007486 338.88694064 458.81761169 362.39440918 C458.12022888 363.3251123 457.42284607 364.25581543 456.70433044 365.21472168 C430.76880907 398.61408875 394.94571965 423.19096721 354.81761169 436.39440918 C354.15761169 436.39440918 353.49761169 436.39440918 352.81761169 436.39440918 C357.82768763 443.73778289 362.94438078 450.95924437 368.31370544 458.04675293 C371.31571882 462.03359245 374.21816918 466.09159526 377.13011169 470.14440918 C381.75854946 476.57918133 386.45504133 482.95516965 391.22703552 489.28405762 C395.73037768 495.26101999 400.16628224 501.28633198 404.59764099 507.31677246 C408.38927799 512.47113542 412.21562519 517.59753848 416.06761169 522.70690918 C420.14476063 528.11820371 424.12189873 533.58914076 428.03831482 539.11755371 C431.63233292 544.17395557 435.3464032 549.13452258 439.07981873 554.08850098 C444.79007404 561.67054147 450.40896179 569.31911854 456.0309906 576.9666748 C457.80475176 579.37693457 459.58204814 581.78454342 461.36058044 584.19128418 C467.59696907 592.63347776 473.79088957 601.10331303 479.92112732 609.6229248 C483.86635396 615.09842118 487.86498967 620.53252781 491.88011169 625.95690918 C518.8149532 662.39069174 518.8149532 662.39069174 517.81761169 674.39440918 C516.42534304 680.31155098 513.9127786 685.37855324 508.70042419 688.77331543 C502.60137756 692.28276685 498.2524677 693.514909 491.17234802 693.55554199 C490.51322418 693.5605069 489.85410034 693.5654718 489.17500305 693.57058716 C486.99987226 693.58516 484.82481449 693.59200396 482.64964294 693.59753418 C481.1299235 693.60329133 479.61020406 693.60904899 478.09048462 693.61480713 C474.90373905 693.62530443 471.7170186 693.63115484 468.53025818 693.63464355 C464.46635582 693.64011396 460.40279092 693.66411591 456.33899403 693.69261551 C453.19809025 693.71133476 450.05726609 693.71645248 446.91631126 693.71797943 C445.41933544 693.72098752 443.92236039 693.72895305 442.42543983 693.74216461 C431.0733327 693.83517371 422.21203784 693.40338979 413.68431091 685.35681152 C410.64571356 682.16242943 407.98704387 678.75757676 405.38011169 675.20690918 C404.8222699 674.46223389 404.2644281 673.71755859 403.68968201 672.95031738 C402.57315077 671.4582344 401.46025339 669.96342414 400.3513031 668.46569824 C399.00823433 666.65184988 397.65666409 664.8450833 396.29808044 663.04284668 C394.13055677 660.16546849 391.97266202 657.28113707 389.81761169 654.39440918 C383.96314181 646.55378699 378.04938321 638.76378439 372.07054138 631.01794434 C362.64423469 618.80341988 353.26023015 606.55612728 343.92308044 594.27331543 C337.44998163 585.76013351 330.95963054 577.26323482 324.38011169 568.83190918 C319.97883309 563.19142384 315.63031605 557.51933244 311.35667419 551.78112793 C307.87911245 547.1253998 304.34294154 542.51398785 300.81761169 537.89440918 C296.63211592 532.4083005 292.44770509 526.92238034 288.31761169 521.39440918 C284.24978815 515.94990349 280.12810797 510.54722029 276.00511169 505.14440918 C270.76873365 498.281947 265.55870476 491.40154093 260.39207458 484.4864502 C256.27914859 478.98991632 252.11207626 473.53562038 247.94261169 468.08190918 C242.16370194 460.5175279 236.46798803 452.89795321 230.8368988 445.22302246 C227.08749032 440.11307593 223.31148246 435.02456976 219.50511169 429.95690918 C219.01051453 429.29779541 218.51591736 428.63868164 218.0063324 427.95959473 C215.83233276 425.06518628 213.65164615 422.17651071 211.45823669 419.29675293 C207.17663846 413.65627866 203.01097875 407.9400714 198.94261169 402.14440918 C198.4778241 401.49472168 198.0130365 400.84503418 197.53416443 400.17565918 C191.3816042 391.31002599 189.55039042 383.22671412 190.81761169 372.39440918 C193.32651563 363.83393603 198.93074006 358.34305444 206.41629028 353.82641602 C210.60372298 352.06344465 213.91162888 351.97445088 218.39891052 352.00964355 C219.24054749 352.00427078 220.08218445 351.99889801 220.94932556 351.99336243 C222.77113366 351.98360716 224.59298811 351.98063345 226.41481972 351.98371887 C229.31441697 351.98822093 232.21341143 351.9741238 235.11294556 351.95532227 C241.28532439 351.91859037 247.45763977 351.90486611 253.63011169 351.89440918 C260.75159285 351.88226125 267.87278047 351.86025971 274.99413109 351.81440735 C277.82154893 351.8010287 280.6485772 351.80497527 283.47601318 351.80981445 C297.78482309 351.76617799 311.87270154 350.55483176 325.31761169 345.26940918 C326.0996698 344.96937988 326.88172791 344.66935059 327.68748474 344.36022949 C360.20390196 331.50436842 384.0855171 307.26452635 398.06761169 275.33190918 C408.62603899 250.20264539 411.69479331 219.84080679 404.81761169 193.39440918 C404.6619574 192.74311035 404.5063031 192.09181152 404.34593201 191.42077637 C398.78848202 168.31465197 387.14273961 148.49250716 370.81761169 131.39440918 C370.28136169 130.79499512 369.74511169 130.19558105 369.19261169 129.57800293 C350.41384699 109.34388396 318.574899 95.60890062 291.34644485 94.27318382 C284.10309828 94.06407135 276.85707721 94.07857594 269.61131287 94.07214355 C267.16920171 94.06287333 264.72709341 94.05282217 262.2849884 94.04205322 C255.68419514 94.01595307 249.08343122 94.00287174 242.48259902 93.99403191 C238.35585955 93.98848149 234.22912925 93.98000307 230.10239601 93.97102356 C218.65750184 93.94667824 207.21261492 93.92606238 195.76769543 93.91927338 C194.67274622 93.91861468 194.67274622 93.91861468 193.55567684 93.91794267 C192.82408376 93.91750612 192.09249069 93.91706956 191.33872813 93.91661978 C189.85651028 93.91573288 188.37429243 93.91483975 186.89207458 93.91394043 C185.78925497 93.91327614 185.78925497 93.91327614 184.66415618 93.91259843 C172.72983367 93.90468852 160.79575431 93.86972046 148.86152586 93.82322139 C136.58461127 93.77577531 124.30781887 93.75086932 112.03081113 93.74853754 C105.14703486 93.74670662 98.26357691 93.7352653 91.37988853 93.69889832 C84.91267413 93.66484812 78.44590292 93.66160438 71.97861862 93.67917633 C69.60665455 93.68071885 67.23465817 93.67200799 64.8627758 93.65225983 C61.62285276 93.62686605 58.38508022 93.63854442 55.14517212 93.65942383 C54.20849628 93.64331102 53.27182044 93.62719821 52.30676049 93.61059713 C45.58030638 93.71188232 41.61893587 95.69095283 36.81761169 100.39440918 C32.81361186 105.52774229 31.69352744 109.22452058 31.69011974 115.6191721 C31.68560827 117.21459633 31.68560827 117.21459633 31.68100566 118.84225136 C31.68275603 120.00983591 31.6845064 121.17742046 31.68630981 122.38038635 C31.6841941 123.6215263 31.68207839 124.86266624 31.67989856 126.14141649 C31.67597321 128.86853245 31.67388062 131.59557906 31.67486382 134.32269096 C31.67645663 138.76009895 31.67125426 143.19748442 31.66523743 147.6348877 C31.65712324 154.07854773 31.65218011 160.5222038 31.64894676 166.965868 C31.64344825 177.15572397 31.62654811 187.34554651 31.60760498 197.53538513 C31.60124809 201.02235884 31.59493965 204.50933263 31.58862782 207.99630642 C31.58704405 208.86778368 31.58546029 209.73926095 31.58382853 210.63714661 C31.56588975 220.55875452 31.54966519 230.48036479 31.53465271 240.40197754 C31.5325889 241.76246267 31.5325889 241.76246267 31.5304834 243.15043234 C31.50856837 257.83792658 31.49780087 272.5254122 31.49028196 287.2129199 C31.48220387 302.2976738 31.45889006 317.38235396 31.42232829 332.46706575 C31.40033016 341.76770334 31.39063042 351.06818919 31.39682863 360.36885148 C31.40000931 366.74786848 31.38863298 373.12675616 31.36593422 379.50573314 C31.35329819 383.18307495 31.34705777 386.86012856 31.35835075 390.53748131 C31.37045887 394.53175898 31.35154364 398.52530941 31.3298645 402.51954651 C31.34252831 404.24750075 31.34252831 404.24750075 31.35544795 406.01036316 C31.23759758 417.78213965 27.64662654 427.18229625 19.75511169 435.95690918 C11.83983921 443.68372279 1.72708585 445.69827703 -8.90138245 445.70910645 C-19.32608122 445.51032792 -27.75582792 441.74858593 -35.18238831 434.39440918 C-43.59295273 424.16186253 -44.62507316 414.53712903 -44.57679749 401.74517822 C-44.58168966 400.14227441 -44.58788098 398.53937412 -44.59525537 396.93647981 C-44.61163687 392.54245653 -44.6093406 388.14861288 -44.60388041 383.75456977 C-44.60120798 379.01140126 -44.61574608 374.26828041 -44.62797546 369.52513123 C-44.64902326 360.23636222 -44.65357066 350.94765564 -44.65178758 341.6588656 C-44.65047952 334.10718697 -44.65428633 326.55552781 -44.66171265 319.00385284 C-44.66381187 316.82787713 -44.66590947 314.65190141 -44.66800547 312.47592568 C-44.66904899 311.39284349 -44.67009252 310.30976129 -44.67116767 309.19385841 C-44.69006773 288.71232538 -44.68902068 268.23082816 -44.68219835 247.74929002 C-44.67662417 229.02108872 -44.69744343 210.29302427 -44.73055881 191.56485495 C-44.76431057 172.32720084 -44.77946222 153.08961226 -44.77484179 133.851928 C-44.77259846 123.05452199 -44.77782019 112.25724244 -44.80273438 101.45986176 C-44.82376674 92.26660239 -44.82732031 83.0735388 -44.80843478 73.88027135 C-44.79928859 69.19213112 -44.79809962 64.50435574 -44.81879044 59.81624413 C-44.83754583 55.51902427 -44.83294618 51.2224669 -44.81024462 46.9252719 C-44.80607032 45.3761816 -44.81021935 43.82704006 -44.82384056 42.27800402 C-44.91906854 30.65051138 -43.27583408 19.65888187 -34.89723206 10.91784668 C-24.49178119 1.67382427 -13.58965925 -0.06117048 0 0 Z " fill="#FCFCFD" transform="translate(326.18238830566406,192.6055908203125)"/>
<path d="M0 0 C6.00333642 0.00204993 12.00666978 -0.00064701 18.01000558 -0.00314737 C31.02164295 -0.00837618 44.03327537 -0.0079717 57.04491319 -0.00506845 C68.4286785 -0.00254123 79.812442 -0.0019016 91.19620752 -0.0030911 C91.95475328 -0.00316748 92.71329904 -0.00324387 93.49483103 -0.00332257 C96.57485232 -0.00363396 99.65487362 -0.00395237 102.73489491 -0.00428233 C131.55224544 -0.00733265 160.36959284 -0.00458136 189.18694288 0.00081457 C214.73575701 0.0055621 240.28456614 0.00513211 265.83338022 0.00035357 C294.61102551 -0.00501102 323.38866805 -0.0071191 352.16631377 -0.00403416 C355.23848335 -0.00371349 358.31065293 -0.00340065 361.38282251 -0.0030911 C362.13913919 -0.00301202 362.89545586 -0.00293294 363.67469123 -0.00285147 C375.04970009 -0.00171839 386.42470694 -0.00303597 397.79971552 -0.00557065 C410.74080371 -0.00844011 423.68188623 -0.00769329 436.62297373 -0.00228991 C443.21624463 0.00037289 449.80950767 0.00138831 456.4027791 -0.00193906 C462.45248189 -0.00494581 468.50216536 -0.00323725 474.55186643 0.00203849 C476.72568764 0.00314413 478.89951052 0.00261339 481.07333063 0.00016271 C520.51125359 -0.04084466 520.51125359 -0.04084466 536.51306772 2.63072467 C537.52619028 2.79886676 538.53931284 2.96700885 539.58313608 3.14024615 C568.50839569 8.36124563 595.99941348 19.825647 620.38806772 36.13072467 C621.33432016 36.76276813 621.33432016 36.76276813 622.29968882 37.40758014 C631.1594639 43.39593696 639.38240859 50.0506891 647.38806772 57.13072467 C647.92238413 57.60187701 648.45670053 58.07302936 649.00720835 58.55845904 C654.57332642 63.49191073 659.97358267 68.47210124 664.75525522 74.18931842 C666.52744238 76.29644047 668.39293543 78.29774841 670.26306772 80.31822467 C675.19326819 85.86707964 679.32549145 91.93630145 683.38806772 98.13072467 C684.0351771 99.11556842 684.68228647 100.10041217 685.34900522 101.11509967 C700.62925087 125.18928261 711.40567989 150.98612927 716.38806772 179.13072467 C716.56084167 180.0821427 716.73361562 181.03356074 716.91162515 182.01380962 C718.92275362 194.77907362 718.66624236 207.55944988 718.64203501 220.45196795 C718.64434158 223.12908558 718.6474379 225.80619186 718.6514895 228.48330635 C718.65868177 234.28661631 718.65851298 240.089889 718.65339518 245.89320064 C718.64580529 254.52333764 718.64971063 263.15344342 718.65581179 271.78358024 C718.66632621 287.20115184 718.66543719 302.61870682 718.65965397 318.03627999 C718.65461723 331.53055922 718.65331207 345.02483237 718.65569925 358.51911235 C718.65592841 359.86325593 718.65592841 359.86325593 718.65616219 361.23455393 C718.6567849 364.87239069 718.65742171 368.51022745 718.65808172 372.1480642 C718.66419639 406.25742296 718.65865837 440.36677116 718.64788793 474.47612829 C718.63839954 504.75544928 718.63924432 535.03475344 718.64880991 565.31407428 C718.65952881 599.35765177 718.66376025 633.40121994 718.65758538 667.44479889 C718.65694398 671.07682915 718.6563183 674.70885942 718.65569925 678.34088969 C718.6555411 679.23514323 718.65538294 680.12939678 718.65522 681.05074891 C718.65294879 694.53180472 718.65559868 708.01285377 718.66065836 721.49390864 C718.66638598 736.83081039 718.66492795 752.16769297 718.65409687 767.50459234 C718.64824048 776.07921027 718.64781745 784.65378667 718.65538922 793.22840349 C718.65989561 798.96644922 718.65704407 804.70446188 718.64837968 810.44250274 C718.64365291 813.70481026 718.64304895 816.9670202 718.64919165 820.22932772 C718.68069694 838.35900118 718.13100451 855.89650569 713.70056772 873.56822467 C713.43929087 874.62606158 713.17801401 875.6838985 712.90881968 876.77379107 C704.2462561 910.7322701 687.01728066 940.99053669 662.95447397 966.35338092 C660.42701094 968.97958488 660.42701094 968.97958488 658.66541147 971.50181842 C658.24388803 972.03935748 657.8223646 972.57689654 657.38806772 973.13072467 C656.72806772 973.13072467 656.06806772 973.13072467 655.38806772 973.13072467 C655.05806772 974.12072467 654.72806772 975.11072467 654.38806772 976.13072467 C652.75593016 977.61083536 651.05716583 979.01831185 649.32556772 980.38072467 C645.91262808 983.09876166 642.55921991 985.82688396 639.32556772 988.75572467 C634.92903216 992.61480799 630.27838873 995.92477799 625.38806772 999.13072467 C624.78269175 999.52775592 624.17731577 999.92478717 623.55359507 1000.33384967 C583.36660562 1026.42444952 541.62810359 1035.48302112 494.37120676 1035.38469195 C491.92117854 1035.38700188 489.47115101 1035.39018195 487.0211249 1035.39414644 C481.73558159 1035.40070969 476.4500922 1035.4011931 471.16455126 1035.39605212 C463.30428528 1035.38842794 455.44405334 1035.39238504 447.58378753 1035.39846874 C433.53851861 1035.40895634 419.49326797 1035.40810506 405.44799735 1035.40231091 C393.15684538 1035.39726572 380.86570008 1035.39597294 368.57454729 1035.3983562 C367.75700354 1035.39850897 366.93945979 1035.39866174 366.09714199 1035.39881914 C362.77788721 1035.39944189 359.45863243 1035.4000787 356.13937766 1035.40073867 C325.04825521 1035.40684675 293.95714436 1035.4013254 262.86602371 1035.39054487 C235.28425417 1035.38105387 207.70250311 1035.38190482 180.12073374 1035.39146686 C149.08239333 1035.40219143 118.04406316 1035.40641434 87.00572115 1035.40024233 C83.69307157 1035.39960096 80.38042198 1035.39897527 77.06777239 1035.3983562 C76.25220304 1035.39819804 75.4366337 1035.39803989 74.59635013 1035.39787694 C62.3166124 1035.3956084 50.0368821 1035.39825055 37.7571454 1035.40331531 C23.78596243 1035.40904921 9.81480049 1035.40757142 -4.15637989 1035.39675382 C-11.96166666 1035.3909086 -19.76690782 1035.39045805 -27.57219335 1035.39804617 C-33.41886702 1035.40310013 -39.26550107 1035.39756543 -45.11217021 1035.38809702 C-47.46314857 1035.38587943 -49.81413311 1035.38696192 -52.16510744 1035.39184859 C-70.9767013 1035.42792305 -89.65942422 1034.78367989 -108.04943228 1030.50572467 C-109.74193106 1030.11876422 -109.74193106 1030.11876422 -111.46862173 1029.72398639 C-127.71635951 1025.85030814 -143.04978071 1020.00671473 -157.75597525 1012.11314654 C-159.61051707 1011.13147379 -161.48297303 1010.19736514 -163.36583853 1009.27134967 C-172.65796269 1004.62830961 -180.75317746 998.87302822 -188.90978384 992.46275592 C-190.32532085 991.35501496 -191.75938654 990.27100063 -193.19786978 989.19322467 C-235.33810758 957.55001361 -265.45563645 908.18279622 -272.92728278 855.9251219 C-274.78099262 841.26139252 -274.89462724 826.67199965 -274.86589956 811.91174579 C-274.8682082 809.30670131 -274.87138741 806.70165749 -274.87535405 804.09661502 C-274.88252374 798.46618225 -274.88239171 792.83578795 -274.87725973 787.2053535 C-274.86964884 778.83220182 -274.87358592 770.45908218 -274.87967635 762.08593068 C-274.89017438 747.12530925 -274.88930839 732.16470497 -274.88351852 717.20408194 C-274.87847652 704.11073362 -274.87717907 691.01739156 -274.87956381 677.92404246 C-274.87971658 677.05368006 -274.87986935 676.18331765 -274.88002675 675.28658063 C-274.88064948 671.75299922 -274.88128629 668.21941781 -274.88194628 664.6858364 C-274.88805695 631.57400679 -274.88252909 598.46218807 -274.87175248 565.35036014 C-274.86226293 535.96976944 -274.86311068 506.58919608 -274.87267447 477.20860553 C-274.88339749 444.15672467 -274.88762265 411.10485342 -274.88144994 378.05297107 C-274.88080856 374.52572159 -274.88018287 370.99847212 -274.87956381 367.47122264 C-274.87940565 366.60280058 -274.8792475 365.73437851 -274.87908455 364.83964063 C-274.8768152 351.75921709 -274.87945972 338.67880052 -274.88452291 325.59837794 C-274.89025515 310.7158617 -274.88878266 295.83336519 -274.87796143 280.95085139 C-274.87211307 272.63456527 -274.87167026 264.31832197 -274.87925378 256.00203702 C-274.88430315 249.77488528 -274.87877936 243.54778334 -274.86930463 237.3206377 C-274.86708492 234.81482261 -274.86817443 232.30900173 -274.8730562 229.80319042 C-274.97561113 172.75040512 -258.9577909 120.36937831 -220.61193228 77.13072467 C-219.40150259 75.75400592 -219.40150259 75.75400592 -218.16661978 74.34947467 C-211.41446176 66.75043581 -204.39577445 59.67114157 -196.61193228 53.13072467 C-195.88635122 52.51052447 -195.88635122 52.51052447 -195.14611197 51.87779498 C-137.29416839 2.68779792 -72.32618523 -0.03661109 0 0 Z M-104.23693228 22.88072467 C-105.1894689 23.13894 -106.14200552 23.39715533 -107.12340689 23.66319537 C-130.24336831 30.09578859 -152.20589757 39.90711079 -171.61193228 54.13072467 C-172.18234243 54.54709186 -172.75275259 54.96345904 -173.3404479 55.39244342 C-180.02708913 60.3146595 -186.36511674 65.54414646 -192.47130728 71.17759967 C-194.20534486 72.75975075 -195.9589261 74.24019347 -197.79943228 75.69322467 C-200.76955857 78.26733412 -203.24190989 81.0026046 -205.77990103 83.99400592 C-206.96109141 85.37164161 -208.17058854 86.725736 -209.41271353 88.04869342 C-219.99473926 99.37562366 -228.39929194 112.60718494 -235.62560415 126.2679317 C-236.5482455 128.01044494 -237.49335216 129.74101099 -238.44005728 131.47056842 C-245.66816822 145.16165243 -250.82674358 159.91962257 -254.48693228 174.94322467 C-254.67787466 175.71674273 -254.86881704 176.4902608 -255.06554556 177.28721881 C-258.91031847 194.15646495 -258.8988468 211.0745333 -258.86589956 228.27487445 C-258.86820698 230.90834545 -258.87130404 233.54180495 -258.87535405 236.17527276 C-258.88253702 241.87702128 -258.88238336 247.57873185 -258.87725973 253.28048205 C-258.86966127 261.75956674 -258.87357957 270.23861971 -258.87967635 278.71770422 C-258.89018388 293.86598514 -258.88930458 309.01424914 -258.88351852 324.16253164 C-258.8784798 337.41997782 -258.87717755 350.67741782 -258.87956381 363.93486476 C-258.87971658 364.81557319 -258.87986935 365.69628161 -258.88002675 366.60367817 C-258.88064947 370.17911588 -258.88128627 373.75455359 -258.88194628 377.32999129 C-258.8880592 410.84525087 -258.8825255 444.3604997 -258.87175248 477.87575762 C-258.86226267 507.62505903 -258.86311042 537.37434332 -258.87267447 567.12364459 C-258.88339366 600.57759975 -258.88762478 634.03154542 -258.88144994 667.48550206 C-258.88080854 671.05459098 -258.88018286 674.62367989 -258.87956381 678.19276881 C-258.87940565 679.0715147 -258.8792475 679.95026058 -258.87908455 680.85563513 C-258.87681362 694.10115747 -258.87946267 707.34667293 -258.88452291 720.59219432 C-258.89025079 735.66005386 -258.88879188 750.7278939 -258.87796143 765.79575103 C-258.87210579 774.21929808 -258.87168092 782.64280285 -258.87925378 791.06634877 C-258.883761 796.70362406 -258.88090714 802.34086569 -258.87224424 807.97813602 C-258.86751865 811.18285322 -258.86691169 814.38747115 -258.8730562 817.59218835 C-258.90455887 835.39540944 -258.48992224 852.75273186 -253.92443228 870.06822467 C-253.53360464 871.58126178 -253.53360464 871.58126178 -253.1348815 873.12486529 C-249.02289375 888.57833435 -243.2967097 903.1122207 -235.61193228 917.13072467 C-235.10605581 918.05764117 -235.10605581 918.05764117 -234.58995962 919.00328326 C-225.73511377 934.99411785 -214.28407453 949.0267909 -201.61193228 962.13072467 C-200.97900259 962.80361529 -200.3460729 963.47650592 -199.69396353 964.16978717 C-171.11780605 993.89985124 -129.96869718 1012.52518859 -89.61193228 1018.13072467 C-88.45509729 1018.30031027 -87.2982623 1018.46989586 -86.1063717 1018.64462042 C-81.11890829 1019.2612493 -76.17373949 1019.27148052 -71.15402651 1019.26215243 C-69.60385696 1019.26523138 -69.60385696 1019.26523138 -68.02237085 1019.26837254 C-64.55483207 1019.27403293 -61.08733313 1019.27258646 -57.61979055 1019.27116656 C-55.11029859 1019.27375076 -52.60080703 1019.27676407 -50.09131604 1019.28016996 C-43.91464234 1019.28739112 -37.73798108 1019.28994229 -31.56130365 1019.29049902 C-24.16120578 1019.2914141 -16.76111586 1019.29808598 -9.36102142 1019.30484584 C8.52465563 1019.32089437 26.41033183 1019.32680807 44.29601479 1019.33159459 C52.76121512 1019.33393195 61.22641477 1019.33753478 69.69161457 1019.34128997 C98.68209517 1019.35412521 127.67257538 1019.36484382 156.66305876 1019.36829257 C158.48243473 1019.3685142 160.30181071 1019.36873599 162.12118668 1019.36895792 C163.9449036 1019.36917856 165.76862051 1019.36939904 167.59233743 1019.36961937 C171.25089141 1019.37006192 174.90944539 1019.37050903 178.56799936 1019.37095904 C179.47510589 1019.37106843 180.38221242 1019.37117783 181.31680703 1019.37129053 C210.71665195 1019.37491956 240.11647219 1019.39083393 269.51630767 1019.41414941 C300.61608859 1019.43876782 331.71585541 1019.45246637 362.81564635 1019.45366049 C366.23239227 1019.45383193 369.64913819 1019.45404736 373.06588411 1019.45429492 C374.32778724 1019.45437857 374.32778724 1019.45437857 375.61518337 1019.45446392 C389.13077636 1019.45561269 402.64634395 1019.46661999 416.16192837 1019.48118198 C429.7583678 1019.49557726 443.35477481 1019.4987669 456.95121977 1019.490742 C465.01905001 1019.48629982 473.08677529 1019.49008951 481.15459165 1019.5059805 C487.19374205 1019.51693922 493.23277393 1019.51204519 499.27192893 1019.50120863 C501.70404548 1019.49925671 504.13617269 1019.50230653 506.5682743 1019.511053 C523.67846833 1019.56865688 540.18089669 1018.49700258 556.76306772 1013.94322467 C557.53086557 1013.73455768 558.29866343 1013.52589068 559.08972788 1013.31090045 C596.59243648 1002.72430066 632.72304119 980.66837656 657.38806772 950.13072467 C657.99521616 949.41142779 658.6023646 948.69213092 659.22791147 947.95103717 C664.7536555 941.27637607 669.57211146 934.1882456 674.247931 926.90465045 C675.22954671 925.37736571 676.22721656 923.8604208 677.22791147 922.34556842 C697.42288056 890.08113545 703.04229333 851.88707695 702.88927317 814.58279681 C702.89317644 811.9065594 702.89866227 809.23036652 702.90604407 806.55414063 C702.91881574 800.78674692 702.91709236 795.01950772 702.90526438 789.25211406 C702.88772402 780.67543152 702.89343886 772.09886816 702.90343129 763.52217906 C702.92054085 748.19692759 702.91513548 732.87174812 702.9000741 717.54649822 C702.88698214 704.13761489 702.88183409 690.72875644 702.88439226 677.3198669 C702.88455268 676.42773538 702.88471309 675.53560386 702.88487837 674.61643806 C702.88554203 670.99433339 702.88624446 667.37222872 702.88700371 663.75012407 C702.89401444 629.83154844 702.87858012 595.91301658 702.85238025 561.99445208 C702.82925836 531.90127205 702.82388213 501.80814009 702.83411264 471.71495318 C702.83671495 464.00441593 702.83930005 456.29387868 702.84171057 448.58334136 C702.84215674 447.15916855 702.84215674 447.15916855 702.84261192 445.70622458 C702.85023596 420.50863995 702.84380667 395.31105922 702.83301455 370.11347634 C702.83186682 367.40057593 702.83072364 364.68767552 702.82958772 361.9747751 C702.82883248 360.17535787 702.82806684 358.37594063 702.82729072 356.57652341 C702.82164653 343.17705184 702.82295267 329.77759274 702.82751894 316.37812114 C702.83263918 301.13707994 702.82671846 285.8960852 702.80662464 270.65505555 C702.79568378 262.13876314 702.79280268 253.62256215 702.80191318 245.10626706 C702.80716764 239.40365187 702.80134485 233.70111426 702.78685983 227.99851531 C702.77892562 224.75907088 702.77709596 221.51984361 702.78543239 218.28039493 C702.82910299 199.7105415 702.14959034 181.18600101 696.57556772 163.31822467 C696.31404917 162.451169 696.05253061 161.58411334 695.78308725 160.69078326 C695.00751299 158.16283038 694.20408482 155.64587413 693.38806772 153.13072467 C693.16812143 152.43704791 692.94817514 151.74337115 692.72156382 151.02867389 C684.58346533 125.82500167 669.79067081 103.8134881 652.38806772 84.13072467 C651.59400522 83.21420123 650.79994272 82.29767779 649.98181772 81.35338092 C645.42512169 76.16467739 640.72417255 71.50615596 635.38806772 67.13072467 C634.89129526 66.71097369 634.3945228 66.29122272 633.88269663 65.85875201 C619.10834871 53.38408233 602.98299564 43.15066117 585.38806772 35.13072467 C584.66184214 34.79589068 583.93561655 34.4610567 583.18738413 34.11607623 C559.80348322 23.44832962 534.7721621 16.94947986 508.98638296 16.9992969 C507.9833072 16.99724427 506.98023143 16.99519164 505.94675943 16.9930768 C502.59455667 16.9874344 499.24239535 16.98886063 495.89018869 16.99028277 C493.45876719 16.98769755 491.02734612 16.98468395 488.59592563 16.98127937 C482.62005216 16.97406837 476.64419248 16.97150764 470.668316 16.97095032 C463.50684524 16.97003409 456.34538267 16.96335885 449.18391545 16.95660349 C431.87693525 16.9405671 414.56995596 16.93464273 397.26296966 16.92985475 C389.0697024 16.92751625 380.87643584 16.92391331 372.68316912 16.92015937 C344.61688537 16.90732545 316.55060201 16.89660653 288.4843154 16.89315677 C286.72348283 16.89293514 284.96265027 16.89271335 283.20181771 16.89249142 C281.43681911 16.89227078 279.67182051 16.8920503 277.90682191 16.89182997 C274.36614668 16.89138742 270.82547146 16.89094031 267.28479624 16.89049029 C265.9679804 16.89032621 265.9679804 16.89032621 264.62456221 16.89015881 C236.17359695 16.88652997 207.72265719 16.87061566 179.27170169 16.84729993 C149.16636614 16.82267371 119.06104517 16.80898262 88.95569927 16.80778885 C85.64735639 16.80761741 82.33901352 16.80740198 79.03067064 16.80715442 C77.80882907 16.80707076 77.80882907 16.80707076 76.56230383 16.80698542 C63.48423693 16.80583736 50.40619631 16.79483622 37.32813826 16.78026736 C24.16878893 16.76586208 11.00947311 16.76268805 -2.14988194 16.77070734 C-9.95513262 16.77514476 -17.76027474 16.77137916 -25.56551104 16.75546883 C-31.41265275 16.74448975 -37.25971429 16.74941896 -43.10685845 16.7602407 C-45.45819769 16.76218885 -47.80954801 16.75916055 -50.16087172 16.75039634 C-68.5181997 16.68635382 -86.4667574 17.96643256 -104.23693228 22.88072467 Z " fill="#5667A9" transform="translate(322.61193227767944,22.869275331497192)"/>
<path d="M0 0 C1.06347656 -0.01482422 2.12695312 -0.02964844 3.22265625 -0.04492188 C12.63136132 0.05320572 19.79346118 2.68194142 26.4375 9.4375 C31.7910686 15.48821635 32.95047544 23.4569402 32.89440918 31.25730896 C32.90354584 32.47720059 32.90354584 32.47720059 32.91286707 33.72173649 C32.92938817 36.42067532 32.92473702 39.11913671 32.91992188 41.81811523 C32.92726846 43.76378871 32.9358564 45.70945784 32.94558716 47.65512085 C32.96774769 52.92165912 32.97073664 58.18804068 32.96883965 63.45461917 C32.96871971 67.85814388 32.97729299 72.26163566 32.98561716 76.66515118 C33.00483089 87.05649371 33.00774215 97.44775591 33.00097656 107.83911133 C32.9943343 118.54503593 33.01721244 129.25061614 33.05429029 139.95647091 C33.08501289 149.16269742 33.09634462 158.36881326 33.09245348 167.57508999 C33.09038897 173.06726502 33.09581974 178.55917185 33.12034607 184.05129814 C33.14265336 189.21677637 33.14070205 194.38169528 33.12041855 199.54717636 C33.11701579 201.43774286 33.12206583 203.32834733 33.13640213 205.21886253 C33.26440213 223.35596475 33.26440213 223.35596475 27.5 231.6875 C26.96375 232.595 26.4275 233.5025 25.875 234.4375 C17.85721518 242.03329614 11.12749739 243.24954605 0.3125 243.3125 C-0.72100586 243.32321533 -1.75451172 243.33393066 -2.81933594 243.3449707 C-10.94331556 243.19537346 -17.39381141 241.3706841 -23.25 235.5 C-23.78109375 234.99082031 -24.3121875 234.48164062 -24.859375 233.95703125 C-31.85822052 224.27529495 -31.06986398 214.58190724 -31.01757812 203.15795898 C-31.0230033 201.16963184 -31.03012818 199.18130872 -31.03881836 197.19299316 C-31.05700629 191.81082836 -31.05000314 186.4289713 -31.03730202 181.04680133 C-31.02715232 175.40644188 -31.03657304 169.7661082 -31.04284668 164.12574768 C-31.05011673 154.65613082 -31.04055155 145.18663889 -31.02148438 135.71704102 C-30.99971066 124.77708157 -31.00677333 113.83742027 -31.02879 102.89746803 C-31.04695473 93.49424105 -31.04949723 84.0911037 -31.03903532 74.68786484 C-31.03280713 69.076202 -31.03194641 63.46467922 -31.04518127 57.85302544 C-31.05675491 52.5776133 -31.04868614 47.30258484 -31.02560425 42.02721405 C-31.02032555 40.0938919 -31.02181653 38.16053732 -31.03065491 36.22722816 C-31.04162711 33.58293256 -31.02782714 30.93985742 -31.00793457 28.29563904 C-31.01685746 27.53521834 -31.02578034 26.77479765 -31.03497362 25.9913339 C-30.92683332 18.55278071 -27.76172188 11.94922188 -22.5 6.6875 C-15.16202436 1.05327382 -9.12856285 -0.23789588 0 0 Z " fill="#8D6EF8" transform="translate(470.5,643.3125)"/>
<path d="M0 0 C3.46053828 2.18592721 6.34176924 4.68516969 9 7.8125 C9.721875 8.616875 10.44375 9.42125 11.1875 10.25 C14.4099736 14.80591095 15.24908726 19.23671263 15.26742554 24.74371338 C15.27595551 25.90707718 15.28448547 27.07044098 15.29327393 28.26905823 C15.29236755 29.53152878 15.29146118 30.79399933 15.29052734 32.09472656 C15.29651723 33.44883086 15.30332383 34.80293175 15.31088257 36.1570282 C15.32850544 39.82460112 15.33323644 43.49208064 15.33451414 47.15969181 C15.33593868 49.45503006 15.34021406 51.75034479 15.34550858 54.04567719 C15.36399828 62.06480916 15.37218073 70.08387476 15.37060547 78.10302734 C15.36940514 85.55913137 15.39048878 93.01494542 15.4220928 100.47097611 C15.4483135 106.88734992 15.45897031 113.30362937 15.45769465 119.7200563 C15.45718661 123.54559392 15.46278134 127.37087383 15.48405075 131.19635773 C15.50353071 134.79819356 15.50349194 138.39952849 15.48901749 142.00138283 C15.48595645 143.93888931 15.50253835 145.87639638 15.51989746 147.81382751 C15.44671999 158.06029823 13.37090239 166.44159761 6 173.8125 C-0.93045705 179.23633596 -7.85980147 180.15900638 -16.375 180.125 C-17.17421875 180.14111328 -17.9734375 180.15722656 -18.796875 180.17382812 C-27.0197923 180.18048097 -34.31131957 178.32682756 -40.4296875 172.62109375 C-46.05434796 166.14294003 -48.10231011 159.51902381 -48.16062927 151.05296326 C-48.1706749 149.90227859 -48.18072052 148.75159393 -48.19107056 147.56604004 C-48.19690155 146.31246704 -48.20273254 145.05889404 -48.20874023 143.76733398 C-48.21828705 142.42647564 -48.22817857 141.0856197 -48.23838806 139.74476624 C-48.26968434 135.34940482 -48.29003322 130.95402503 -48.30859375 126.55859375 C-48.31189107 125.80888093 -48.31518839 125.05916811 -48.31858563 124.28673673 C-48.3493678 117.20607251 -48.37605387 110.12540377 -48.39300442 103.04469204 C-48.41488085 94.01482 -48.45680142 84.9855447 -48.52644199 75.9559111 C-48.57383968 69.59219702 -48.597959 63.22864303 -48.6052013 56.86475807 C-48.61013464 53.07137351 -48.62499102 49.27866267 -48.6649456 45.48547173 C-48.7021055 41.9105917 -48.71012768 38.33676196 -48.69693947 34.76172447 C-48.69701819 32.84359627 -48.72668004 30.92553841 -48.75762939 29.00765991 C-48.68007087 19.64265965 -46.50775129 11.28793129 -39.68241024 4.51152706 C-29.658287 -3.86649084 -11.91297791 -5.73988936 0 0 Z " fill="#4288FB" transform="translate(402,706.1875)"/>
<path d="M0 0 C0.94681641 -0.01160156 1.89363281 -0.02320313 2.86914062 -0.03515625 C11.38239509 -0.00000172 19.26067023 1.3752187 25.51013184 7.55513 C33.54268554 16.27009419 32.90846792 25.9351341 32.81640625 37.12890625 C32.81723612 38.95776002 32.81969996 40.78661371 32.82371521 42.61546326 C32.82656383 46.43584828 32.8119626 50.25564399 32.78442383 54.07592773 C32.75031837 58.95718201 32.75637623 63.83738508 32.7750864 68.71868992 C32.78568576 72.49098883 32.77669238 76.26304575 32.76170158 80.03532219 C32.75654247 81.83453591 32.75697381 83.63377513 32.76324654 85.43298531 C32.76873549 87.95269726 32.74820891 90.4709349 32.72094727 92.99047852 C32.72747314 93.7236882 32.73399902 94.45689789 32.74072266 95.21232605 C32.61483692 102.1016184 29.92652731 108.18764564 25.0625 113.125 C17.63777642 119.8845921 10.23865489 120.72598271 0.5 120.8125 C-0.85472412 120.8278479 -0.85472412 120.8278479 -2.23681641 120.84350586 C-11.97504348 120.71520602 -18.02844738 117.30653202 -24.8125 110.375 C-29.48026941 104.71465894 -29.96358518 99.77786235 -30.00537109 92.62817383 C-30.01354858 91.85200714 -30.02172607 91.07584045 -30.03015137 90.27615356 C-30.05493046 87.71145382 -30.0715037 85.14680922 -30.0859375 82.58203125 C-30.09126118 81.70329535 -30.09658485 80.82455944 -30.10206985 79.91919518 C-30.12877116 75.26637012 -30.14815418 70.6135716 -30.16259766 65.96069336 C-30.17592452 62.12060664 -30.20375813 58.28105286 -30.24462891 54.44116211 C-30.29408449 49.79399243 -30.31873446 45.14730522 -30.32582474 40.49988365 C-30.33251498 38.73492856 -30.3476787 36.9699833 -30.37171555 35.20517921 C-30.50987572 24.44609798 -30.16588655 16.46073808 -22.78515625 8.0703125 C-22.15480469 7.55210937 -21.52445312 7.03390625 -20.875 6.5 C-20.24722656 5.96632813 -19.61945313 5.43265625 -18.97265625 4.8828125 C-12.56512384 0.41028536 -7.62959458 -0.09235555 0 0 Z " fill="#3DD499" transform="translate(298.8125,765.625)"/>
<path d="M0 0 C-0.99 0 -1.98 0 -3 0 C-3.33 0.99 -3.66 1.98 -4 3 C-5.96722008 4.38123963 -7.96868328 5.71488126 -10 7 C-10.66 7.66 -11.32 8.32 -12 9 C-12.99 8.67 -13.98 8.34 -15 8 C-13.54405245 6.68485396 -12.08516421 5.37296283 -10.625 4.0625 C-9.81289063 3.33160156 -9.00078125 2.60070312 -8.1640625 1.84765625 C-4.98497515 -0.86661869 -3.92822346 -1.17846704 0 0 Z " fill="#232B45" transform="translate(375,287)"/>
<path d="M0 0 C0.66 0.99 1.32 1.98 2 3 C0.07848152 7.13126473 -2.04250209 10.53258866 -5 14 C-6.32 13.67 -7.64 13.34 -9 13 C-8.2575 12.34 -7.515 11.68 -6.75 11 C-3.53819246 7.82479426 -1.81524279 4.08683153 0 0 Z " fill="#171B4B" transform="translate(501,867)"/>
<path d="M0 0 C2.88437779 1.29299694 4.87219421 2.65941363 7 5 C6.67 5.99 6.34 6.98 6 8 C4.99403703 7.0479279 3.99538437 6.08812654 3 5.125 C2.443125 4.59132813 1.88625 4.05765625 1.3125 3.5078125 C0 2 0 2 0 0 Z " fill="#303851" transform="translate(763,254)"/>
<path d="M0 0 C0.99 0.66 1.98 1.32 3 2 C1.37660195 3.70884005 -0.29319053 5.37446717 -2 7 C-2.66 7 -3.32 7 -4 7 C-2.79618552 4.50638429 -1.54571278 2.31856917 0 0 Z " fill="#8065E1" transform="translate(447,651)"/>
<path d="M0 0 C1.32 0 2.64 0 4 0 C4.33 2.64 4.66 5.28 5 8 C2.74754119 5.31158141 1.11786042 3.35358125 0 0 Z " fill="#141B35" transform="translate(679,629)"/>
<path d="M0 0 C0.66 0.33 1.32 0.66 2 1 C-0.06756277 3.7972908 -1.14440371 4.02692273 -4.6875 4.6875 C-5.780625 4.790625 -6.87375 4.89375 -8 5 C-5.45378681 2.99940392 -3.01962385 1.20784954 0 0 Z " fill="#303850" transform="translate(710,616)"/>
</svg>
