<?xml version="1.0" encoding="UTF-8"?>
<svg version="1.1" xmlns="http://www.w3.org/2000/svg" width="898" height="898">
<path d="M0 0 C1.50633568 -0.00668677 1.50633568 -0.00668677 3.04310238 -0.01350862 C4.14957682 -0.01332426 5.25605126 -0.01313989 6.39605522 -0.01294994 C7.56929309 -0.01662663 8.74253095 -0.02030332 9.95132148 -0.02409142 C13.21414237 -0.03322061 16.4769337 -0.03782859 19.73976517 -0.04048073 C23.25761382 -0.04438403 26.77544792 -0.05396327 30.29328728 -0.0626936 C38.79946612 -0.08247136 47.30564616 -0.09253206 55.81184226 -0.10142139 C59.82528467 -0.10580764 63.83872576 -0.11117408 67.85216713 -0.11641026 C81.21217194 -0.13343415 94.57217594 -0.14792091 107.93218994 -0.155159 C111.400685 -0.15706871 114.86918006 -0.15898905 118.33767509 -0.16094494 C119.63069704 -0.16167055 119.63069704 -0.16167055 120.94984065 -0.16241082 C134.86493354 -0.17068305 148.77993968 -0.19596691 162.69499482 -0.22852562 C177.0090793 -0.26174186 191.32311998 -0.27962137 205.63724315 -0.28280324 C213.6623718 -0.2849564 221.68737447 -0.2935266 229.71246529 -0.31926441 C236.55916829 -0.3411724 243.40571479 -0.34892523 250.25244887 -0.33929763 C253.7350975 -0.33480832 257.21742474 -0.33631649 260.70002747 -0.35605907 C314.84561825 -0.61226595 363.70600645 16.29883004 402.56374931 54.54584217 C434.07136238 85.97615966 455.07987975 132.59513819 455.35915947 177.30609608 C455.3662191 178.06198017 455.37327873 178.81786427 455.38055229 179.59665394 C455.60784499 211.09263886 455.60784499 211.09263886 452.15603447 226.13422108 C451.95735771 227.03173084 451.75868095 227.92924061 451.55398369 228.85394764 C444.10515687 261.78501569 429.47893326 291.58595107 406.15603447 316.13422108 C404.98269724 317.50353326 403.81549481 318.87813895 402.65603447 320.25922108 C384.3690532 341.18292987 358.6838436 355.07781142 333.15603447 365.13422108 C333.15603447 367.94276404 334.38641231 368.99088049 336.08572197 371.21234608 C336.71107841 372.03621815 337.33643486 372.86009022 337.9807415 373.70892811 C338.65733818 374.59177479 339.33393486 375.47462147 340.03103447 376.38422108 C341.42286373 378.21924579 342.81348668 380.05518608 344.20290947 381.89203358 C345.22481377 383.24216541 345.22481377 383.24216541 346.26736259 384.61957264 C348.65496065 387.79851007 350.98406974 391.01441832 353.28103447 394.25922108 C353.66710869 394.80441395 354.05318291 395.34960682 354.45095634 395.91132069 C355.25179186 397.04238578 356.05257205 398.17349005 356.85330009 399.30463123 C359.39046475 402.86788309 361.96456326 406.40455416 364.53103447 409.94672108 C369.28322109 416.51244336 373.97892803 423.11520521 378.64040947 429.7455492 C382.22962833 434.84280373 385.87012886 439.90077193 389.53103447 444.94672108 C394.80962235 452.22632669 399.98671532 459.57265807 405.13162041 466.94720936 C408.87996315 472.31829746 412.65877188 477.66534186 416.47585869 482.9877367 C419.66434025 487.43629787 422.81875719 491.90819497 425.96853447 496.38422108 C430.06912568 502.20947657 434.21968325 507.99535762 438.40603447 513.75922108 C445.50764667 523.55075622 452.40499068 533.48170594 459.28298759 543.43109608 C461.02989156 545.95217542 462.78635382 548.46623888 464.54665947 550.97797108 C465.5415633 552.40497622 466.53636277 553.83205413 467.53103447 555.25922108 C467.97721123 555.89166737 468.42338799 556.52411366 468.88308525 557.17572498 C472.84088833 562.88141418 475.43248794 568.04860181 474.15603447 575.13422108 C471.98405033 580.16030008 469.28048615 583.90048573 464.15603447 586.13422108 C460.92173181 587.1317145 457.95797511 587.27188484 454.58059502 587.29535389 C453.46230812 587.30496143 452.34402122 587.31456898 451.19184685 587.32446766 C449.98764595 587.32871754 448.78344505 587.33296741 447.54275322 587.33734608 C446.29984016 587.34304615 445.05692711 587.34874622 443.77635002 587.35461903 C441.1461656 587.3640651 438.51596936 587.37060145 435.8857708 587.37445545 C433.19618001 587.37884516 430.50690912 587.39275766 427.81741142 587.41547108 C423.93409314 587.44596398 420.05117795 587.45650693 416.16775322 587.46234608 C414.96962502 587.47469288 413.77149681 587.48703968 412.53706169 587.49976063 C403.78730195 587.47647617 397.70466462 586.36392444 391.15603447 580.13422108 C389.18869298 577.68095215 387.42102942 575.11050013 385.65603447 572.50922108 C384.59715547 570.97856923 383.53722364 569.44864529 382.47634697 567.91937733 C381.9313958 567.13063221 381.38644463 566.34188709 380.82497978 565.52924061 C378.10968768 561.6326614 375.32056809 557.79032614 372.53103447 553.94672108 C371.43575286 552.43386639 370.34069707 550.92084819 369.24587822 549.40765858 C368.72235771 548.68417225 368.1988372 547.96068592 367.65945244 547.21527576 C362.34055735 539.85277792 357.07898793 532.44985162 351.84988213 525.02338123 C345.56491337 516.09811443 339.19786462 507.23529784 332.79275322 498.39593983 C331.17094383 496.15482375 329.55338315 493.91070793 327.93728447 491.66547108 C322.38622537 483.95636926 316.80058644 476.27518822 311.15603447 468.63422108 C304.96592328 460.2547365 298.85129138 451.82314745 292.76492119 443.3681078 C290.06591319 439.62062324 287.36064563 435.87766263 284.65603447 432.13422108 C283.57267143 430.63424253 282.48933809 429.13424254 281.40603447 427.63422108 C280.60165947 426.52047108 280.60165947 426.52047108 279.78103447 425.38422108 C273.82270114 417.13422108 267.8643678 408.88422108 261.90603447 400.63422108 C261.36954277 399.89139881 260.83305107 399.14857655 260.28030205 398.38324451 C259.19936256 396.88653407 258.11847046 395.3897894 257.03762627 393.89301014 C254.29305907 390.0923947 251.54761481 386.2924181 248.80056572 382.49359608 C247.6898257 380.95718324 246.5791482 379.42072521 245.46853447 377.88422108 C244.923825 377.13068348 244.37911552 376.37714588 243.8178997 375.60077381 C240.20460034 370.59786997 236.61893652 365.57606362 233.04519463 360.54486561 C230.59754346 357.11301559 228.11146516 353.71209435 225.60134697 350.32562733 C224.97993828 349.4870116 224.35852959 348.64839588 223.71829033 347.78436756 C222.50315703 346.14768 221.28538173 344.51294934 220.06448174 342.88055897 C209.20760888 328.26464314 209.20760888 328.26464314 209.59744072 319.75922108 C210.50681804 315.4857836 212.76767762 312.79983209 216.15603447 310.13422108 C219.42598881 308.14968572 221.90783971 307.88373781 225.70876884 307.87884998 C226.82513725 307.87189106 227.94150566 307.86493214 229.09170341 307.85776234 C230.90245354 307.85925785 230.90245354 307.85925785 232.74978447 307.86078358 C235.33442395 307.84046096 237.91905932 307.81960964 240.50369072 307.79828358 C244.55560809 307.77378646 248.60746536 307.75844762 252.65945244 307.7533617 C290.66144203 307.65967998 322.73781324 299.46989818 350.40603447 272.25922108 C364.26687614 258.1647066 374.40535011 241.02679322 380.15603447 222.13422108 C380.47145195 221.11014149 380.47145195 221.11014149 380.7932415 220.06537342 C386.41845507 200.8470072 386.94755526 177.34625389 381.15603447 158.13422108 C380.62816338 156.28957264 380.62816338 156.28957264 380.08962822 154.40765858 C371.39138344 125.47493761 351.52526306 101.58389719 325.05349541 87.10785389 C308.59153334 78.66082549 292.28778563 73.97676954 273.75686455 73.99377918 C272.73478559 73.99080806 271.71270662 73.98783694 270.65965557 73.98477578 C267.24828389 73.97613126 263.83694747 73.97458417 260.42556572 73.97308826 C257.97434223 73.96845726 255.52311945 73.96343222 253.07189751 73.9580431 C246.42328446 73.94494848 239.77468512 73.93844335 233.12606239 73.93403244 C228.97171464 73.93126361 224.81736919 73.92702527 220.66302299 73.92252827 C209.15055805 73.91034497 197.63809495 73.90004176 186.1256237 73.89665318 C185.39001435 73.89643361 184.654405 73.89621404 183.89650446 73.89598782 C183.15919594 73.89576955 182.42188742 73.89555127 181.66223621 73.89532638 C180.16830699 73.89488292 178.67437776 73.89443635 177.18044853 73.8939867 C176.43941733 73.89376527 175.69838614 73.89354384 174.93489945 73.8933157 C162.91951191 73.88936507 150.90418491 73.87189877 138.88882077 73.84862718 C126.53975095 73.82490295 114.19071151 73.81245095 101.84161854 73.81128526 C94.91315658 73.81036944 87.98477368 73.80464002 81.05633354 73.78646564 C74.54249278 73.76943809 68.02877554 73.76781993 61.51490974 73.77660465 C59.12522416 73.77737595 56.73553056 73.77302012 54.34586525 73.7631464 C51.08213244 73.75045224 47.81893348 73.75629026 44.55520439 73.7667284 C43.61122701 73.758672 42.66724962 73.75061559 41.69466686 73.74231505 C34.91314667 73.79299202 28.79441567 74.49583987 23.78103447 79.50922108 C20.06110065 85.51834494 19.87101226 90.36552986 19.90447807 97.28651905 C19.90150793 98.3182854 19.8985378 99.35005174 19.89547765 100.41308373 C19.88783044 103.87528016 19.89433473 107.3373073 19.90066338 110.79950428 C19.89791382 113.27984196 19.89423414 115.76017876 19.88969231 118.2405138 C19.88157544 123.58466241 19.87925045 128.92876702 19.88163948 134.27291775 C19.88473834 142.00836034 19.87309381 149.74372982 19.85708968 157.47915401 C19.83112954 170.04117178 19.8111102 182.6031896 19.79763603 195.16522694 C19.79682566 195.91692648 19.79601529 196.66862603 19.79518037 197.44310435 C19.78396182 208.10772987 19.77867834 218.77235018 19.77579324 229.43698081 C19.77558925 230.18777078 19.77538526 230.93856075 19.77517509 231.71210194 C19.77497516 232.46197497 19.77477522 233.21184801 19.77456923 233.98444448 C19.7708342 246.49617835 19.75173443 259.00783296 19.72008073 271.51952714 C19.70118121 279.2333481 19.69519529 286.94696562 19.70589791 294.66080334 C19.71297299 300.57435293 19.69942316 306.48774157 19.67827988 312.40126133 C19.67295444 314.82479872 19.67446062 317.24836224 19.68331528 319.67188931 C19.69443309 322.981924 19.68100745 326.29099622 19.66155815 329.60097218 C19.67068281 330.55866876 19.67980747 331.51636535 19.68920863 332.50308305 C19.60913996 339.51224386 18.03174878 344.87507819 13.33962822 350.19281483 C12.76341728 350.64785389 12.18720634 351.10289295 11.59353447 351.57172108 C11.01474541 352.04480701 10.43595634 352.51789295 9.83962822 353.00531483 C5.41596937 355.97152691 0.26080017 355.56560973 -4.84396553 355.13422108 C-9.74534126 353.43759102 -13.79701306 350.34672464 -16.84396553 346.13422108 C-18.41341808 342.08064907 -19.09459641 338.69462235 -19.09844112 334.35825253 C-19.10427332 333.22261966 -19.11010551 332.08698679 -19.11611444 330.91694081 C-19.11044545 329.06034095 -19.11044545 329.06034095 -19.10466194 327.16623402 C-19.10768386 325.83031974 -19.11157355 324.49440719 -19.11625451 323.15849769 C-19.1265381 319.4933589 -19.12435178 315.82831788 -19.12007391 312.16317105 C-19.11760734 308.20806558 -19.12662002 304.25298369 -19.1341114 300.29788685 C-19.14686244 292.55158995 -19.14865158 284.80532771 -19.14631114 277.05902208 C-19.14452823 270.76250932 -19.14627704 264.46600708 -19.15053558 258.16949558 C-19.15113077 257.27340126 -19.15172596 256.37730694 -19.15233919 255.45405825 C-19.15355094 253.6336453 -19.15476507 251.81323236 -19.15598156 249.99281941 C-19.16685871 232.91977474 -19.16469381 215.84674982 -19.15859672 198.77370404 C-19.1534277 183.15633719 -19.16468229 167.53903271 -19.18369494 151.9216782 C-19.20306918 135.88430772 -19.21133004 119.84696676 -19.20757169 103.8095845 C-19.20565897 94.80641844 -19.208154 85.80330548 -19.22228622 76.80014896 C-19.23419573 69.1354513 -19.23560977 61.47083939 -19.22349606 53.80614056 C-19.21760427 49.89628754 -19.21651614 45.98659144 -19.22849846 42.07674885 C-19.23934676 38.49528394 -19.23626663 34.91410715 -19.22223677 31.33265577 C-19.21833468 29.42809413 -19.2291456 27.52351975 -19.24053365 25.61898816 C-19.19373497 18.21041498 -18.91244279 11.74091915 -13.90646553 5.85687733 C-12.88552803 5.03509998 -12.88552803 5.03509998 -11.84396553 4.19672108 C-11.16334053 3.63082264 -10.48271553 3.0649242 -9.78146553 2.48187733 C-6.54240845 0.22890416 -3.8291471 0.00787843 0 0 Z " fill="#2E3C7A" transform="translate(224.8439655303955,39.86577892303467)"/>
<path d="M0 0 C1.24136719 -0.02449219 2.48273438 -0.04898437 3.76171875 -0.07421875 C11.03954868 -0.0974706 15.98367649 0.36149467 22.125 4.375 C26.70307542 9.18784852 27.25012255 12.74733196 27.26544189 19.24967957 C27.26841302 19.95305287 27.27138414 20.65642618 27.2744453 21.38111383 C27.28313412 23.74391534 27.28464071 26.10666619 27.28613281 28.46948242 C27.29076094 30.16135771 27.29578559 31.85323195 27.30117798 33.54510498 C27.31430643 38.14655701 27.32074807 42.74799444 27.32518864 47.34946227 C27.32811927 50.22484709 27.33222411 53.10022792 27.33669281 55.97561073 C27.3503703 64.97350585 27.36003514 73.97139184 27.3638947 82.96929663 C27.3683731 93.352827 27.38590981 103.73622557 27.4148953 114.11971587 C27.43652465 122.14701392 27.44659969 130.17427493 27.44793582 138.2016018 C27.44898315 142.99510628 27.45487548 147.78848691 27.47275543 152.58196068 C27.48925726 157.09389584 27.49138137 161.60561435 27.48261642 166.11756897 C27.48184712 167.77031345 27.48617468 169.42306967 27.49607468 171.07578468 C27.59819569 189.19189073 27.59819569 189.19189073 22.58656311 195.22789001 C18.14817702 198.22413595 14.37014273 199.10416964 8.99609375 199.00390625 C8.24336685 199.00631821 7.49063995 199.00873016 6.71510315 199.01121521 C5.13431494 199.01024167 3.55349053 198.9969664 1.97290039 198.97192383 C-0.43526783 198.93753188 -2.83977546 198.95130732 -5.24804688 198.97070312 C-6.79168215 198.96380542 -8.33530804 198.9541337 -9.87890625 198.94140625 C-10.59156143 198.94636612 -11.30421661 198.95132599 -12.03846741 198.95643616 C-17.0903596 198.83838112 -19.97693268 197.53824248 -23.875 194.375 C-27.66219402 189.1512841 -28.00029192 184.80664018 -28.01544189 178.45599365 C-28.01841302 177.75993303 -28.02138414 177.0638724 -28.0244453 176.34671903 C-28.03311582 174.01466246 -28.03463915 171.68265734 -28.03613281 169.35058594 C-28.04076217 167.67826732 -28.04578699 166.00594976 -28.05117798 164.33363342 C-28.06429311 159.79009001 -28.07074528 155.24656136 -28.07518864 150.70300198 C-28.07812096 147.86329131 -28.08222608 145.02358467 -28.08669281 142.18387604 C-28.10036577 133.29597516 -28.11003326 124.4080835 -28.1138947 115.52017283 C-28.11837428 105.26626297 -28.13591838 95.01248648 -28.1648953 84.75861716 C-28.18652488 76.82896266 -28.19659967 68.89934564 -28.19793582 60.96966195 C-28.19898298 56.23541653 -28.20487192 51.50129653 -28.22275543 46.76708221 C-28.23925805 42.3117665 -28.241381 37.85667018 -28.23261642 33.40133476 C-28.23184721 31.7695526 -28.23617354 30.13775854 -28.24607468 28.50600624 C-28.35205393 9.94602836 -28.35205393 9.94602836 -22.5625 4 C-15.36252228 -0.3534749 -8.16356589 0.00842473 0 0 Z " fill="#7863E3" transform="translate(391.875,424.625)"/>
<path d="M0 0 C2.56074951 2.16511589 4.84373427 4.43374008 7 7 C8.26049122 4.47901757 8.06463469 2.7450692 8 -0.0625 C7.96222898 -1.70789986 7.95357521 -3.35482156 8 -5 C9 -6 9 -6 11.50024414 -6.11352539 C12.58426514 -6.10828857 13.66828613 -6.10305176 14.78515625 -6.09765625 C15.95498047 -6.09443359 17.12480469 -6.09121094 18.33007812 -6.08789062 C19.56177734 -6.07951172 20.79347656 -6.07113281 22.0625 -6.0625 C23.91584961 -6.05573242 23.91584961 -6.05573242 25.80664062 -6.04882812 C28.87114117 -6.03699608 31.93554721 -6.02051173 35 -6 C35.78192196 -2.54260424 36.12547709 0.64625677 36.12698364 4.18817139 C36.12980347 5.21171219 36.13262329 6.23525299 36.13552856 7.28981018 C36.13249222 8.95764809 36.13249222 8.95764809 36.12939453 10.65917969 C36.13202301 12.4281385 36.13202301 12.4281385 36.13470459 14.23283386 C36.13834636 17.45772261 36.13750066 20.68257019 36.1343255 23.90745831 C36.13179075 27.28223951 36.13414234 30.657018 36.13571167 34.03179932 C36.1375291 39.69421888 36.13513718 45.35662539 36.13037109 51.01904297 C36.12491878 57.57258355 36.12669986 64.12609306 36.1321975 70.6796329 C36.13672825 76.30518318 36.13737969 81.93072409 36.13475883 87.55627561 C36.13319719 90.91698545 36.13299942 94.27768067 36.13629532 97.63838959 C36.13881953 101.37841431 36.13498502 105.11837828 36.12939453 108.85839844 C36.13141876 109.9783873 36.13344299 111.09837616 36.13552856 112.25230408 C36.13270874 113.26456558 36.12988892 114.27682709 36.12698364 115.31976318 C36.1264181 116.64708277 36.1264181 116.64708277 36.12584114 118.00121689 C36 120 36 120 35 121 C33.07332493 121.08748207 31.14348139 121.10697334 29.21484375 121.09765625 C28.04501953 121.09443359 26.87519531 121.09121094 25.66992188 121.08789062 C24.43822266 121.07951172 23.20652344 121.07113281 21.9375 121.0625 C20.08415039 121.05573242 20.08415039 121.05573242 18.19335938 121.04882812 C15.12888587 121.03699618 12.06443707 121.01906008 9 121 C9 116.38 9 111.76 9 107 C7.5975 108.19625 6.195 109.3925 4.75 110.625 C-7.91481708 120.67503041 -22.79107783 125.50924913 -39 124 C-56.53308944 121.42980848 -72.71534582 114.07697147 -84 100 C-95.94652173 82.06925729 -98.90772883 63.66556896 -96.609375 42.3828125 C-92.8993152 25.2118947 -82.21041808 9.9531947 -67.515625 0.45703125 C-46.75126229 -11.56953287 -20.71281267 -13.27822851 0 0 Z M-57 26 C-57.61488281 26.51304687 -58.22976563 27.02609375 -58.86328125 27.5546875 C-65.83486506 33.79477751 -69.67734385 42.66294999 -70.23828125 51.94140625 C-70.5523394 64.9917955 -68.73912702 75.72667068 -60 86 C-50.05929256 95.47180614 -39.52726243 98.52914129 -26.1171875 98.2734375 C-15.62390203 97.7875036 -7.2956547 92.68573641 -0.25 85.12109375 C8.36411327 74.46112858 9.92789003 62.24321895 9 49 C7.86204681 42.13643983 5.03839005 36.60281142 1 31 C-0.0828125 29.453125 -0.0828125 29.453125 -1.1875 27.875 C-8.17379383 19.91236076 -18.36274875 16.95613192 -28.52734375 15.68359375 C-39.13543121 15.15061043 -49.21955205 18.88939194 -57 26 Z " fill="#303E7B" transform="translate(571,735)"/>
<path d="M0 0 C0.64324219 0.59554687 1.28648437 1.19109375 1.94921875 1.8046875 C2.64402344 2.42085937 3.33882813 3.03703125 4.0546875 3.671875 C14.94292362 13.84512376 21.232656 28.13587855 22.94921875 42.8046875 C22.94921875 48.7446875 22.94921875 54.6846875 22.94921875 60.8046875 C-11.37078125 60.8046875 -45.69078125 60.8046875 -81.05078125 60.8046875 C-76.14524728 73.55907582 -72.28644471 82.70539465 -60.05078125 88.8046875 C-48.28840738 93.5962129 -38.33233742 94.23536179 -26.2734375 90.2109375 C-20.21344923 87.56657898 -14.31160976 83.70664648 -10.21875 78.453125 C-8.05078125 76.8046875 -8.05078125 76.8046875 -4.51171875 77.21875 C-3.14321991 77.59970687 -1.78124628 78.00467954 -0.42578125 78.4296875 C1.00339457 78.8351413 2.43308399 79.23878907 3.86328125 79.640625 C4.90597168 79.94371582 4.90597168 79.94371582 5.96972656 80.25292969 C9.90888183 81.3509182 13.92941263 82.07029984 17.94921875 82.8046875 C13.31670583 95.72450996 2.73068714 105.37471477 -9.23828125 111.4921875 C-27.6787754 120.09775144 -46.95567409 121.05434611 -66.3203125 114.73828125 C-73.29344709 112.02600939 -79.16433519 108.39191796 -85.05078125 103.8046875 C-85.73785156 103.30582031 -86.42492187 102.80695313 -87.1328125 102.29296875 C-99.79039834 92.38160469 -106.83616703 75.45533645 -108.76953125 59.9140625 C-110.43776376 41.47082527 -106.0642189 24.20523213 -94.484375 9.62109375 C-83.52316393 -3.06435277 -68.2720815 -12.43377151 -51.29296875 -14.0703125 C-32.74970214 -15.10408346 -14.52907763 -12.45349511 0 0 Z M-72.83203125 23.71875 C-76.91495499 28.74234735 -77.80120095 32.05594661 -80.05078125 38.8046875 C-55.30078125 38.8046875 -30.55078125 38.8046875 -5.05078125 38.8046875 C-6.53767318 29.88333591 -9.90734808 24.01655428 -16.94140625 18.3046875 C-34.45172718 5.85290373 -58.25749771 8.05751879 -72.83203125 23.71875 Z " fill="#2F3D7A" transform="translate(281.05078125,740.1953125)"/>
<path d="M0 0 C12.63985712 10.67185368 21.92065726 23.73295462 24.8125 40.25 C26.41667785 63.34794842 22.53570809 81.37218195 7.1953125 99.12109375 C-4.56244427 111.75083727 -21.62394293 118.38457583 -38.5546875 119.46484375 C-55.97250194 119.9497495 -71.45980345 114.88176498 -85.1875 104.25 C-85.80109375 103.81300781 -86.4146875 103.37601563 -87.046875 102.92578125 C-99.55557278 93.37211987 -106.33943801 77.25099168 -108.68359375 62.1640625 C-111.17445722 42.81642534 -106.0077421 25.0747974 -94.1875 9.6875 C-70.52688073 -17.79380292 -28.85815545 -21.98716606 0 0 Z M-74.6875 26.9375 C-81.4741965 37.40032377 -83.99484402 49.37852279 -81.50390625 61.60546875 C-78.00772744 73.97991078 -71.60123591 83.06844664 -60.57421875 89.859375 C-50.45041919 94.84426109 -37.83695797 95.1478235 -27.125 91.6875 C-15.88173137 86.77288105 -8.68732023 78.44367109 -3.94921875 67.328125 C-0.48145788 57.86736202 -0.57233964 45.05138486 -4.125 35.6875 C-9.06711021 25.73367239 -17.40906213 17.25400758 -27.84765625 13.22265625 C-45.00770996 7.98534028 -63.19410725 12.79178584 -74.6875 26.9375 Z " fill="#2F3D7B" transform="translate(798.1875,739.75)"/>
<path d="M0 0 C11.24763223 10.24505777 16.13409809 24.73688155 16.91311264 39.62715149 C17.08933095 45.18042172 17.06009068 50.733758 17.03515625 56.2890625 C17.0339615 58.0617062 17.03351191 59.83435054 17.0337677 61.60699463 C17.03221561 65.2914231 17.02401681 68.97575263 17.01049805 72.66015625 C16.99335935 77.39146395 16.98968864 82.12266497 16.99044323 86.85400009 C16.99017226 90.49982732 16.98470528 94.14563106 16.97744179 97.7914505 C16.97425511 99.53784254 16.97228771 101.28423723 16.97154808 103.03063202 C16.96939298 105.45503867 16.96067141 107.87932906 16.94995117 110.30371094 C16.95040436 111.02775116 16.95085754 111.75179138 16.95132446 112.49777222 C16.91917756 117.44019744 16.91917756 117.44019744 15.8046875 118.5546875 C13.87801243 118.64216957 11.94816889 118.66166084 10.01953125 118.65234375 C8.84970703 118.64912109 7.67988281 118.64589844 6.47460938 118.64257812 C5.24291016 118.63419922 4.01121094 118.62582031 2.7421875 118.6171875 C0.88883789 118.61041992 0.88883789 118.61041992 -1.00195312 118.60351562 C-4.06645367 118.59168358 -7.13085971 118.57519923 -10.1953125 118.5546875 C-10.20117874 117.62920105 -10.20704498 116.7037146 -10.21308899 115.75018311 C-10.27124837 106.9829334 -10.34345632 98.21593218 -10.43102741 89.44892502 C-10.47555293 84.9428566 -10.51484713 80.4368749 -10.54174805 75.93066406 C-10.56796032 71.57327587 -10.60848597 67.21622462 -10.65849876 62.85904694 C-10.67504731 61.20552038 -10.68663572 59.55193571 -10.69292641 57.89833832 C-10.74672115 45.04492433 -10.86996893 31.51260361 -20.1953125 21.5546875 C-26.91854405 16.20755598 -35.02015417 14.25529818 -43.50390625 14.74609375 C-52.78811796 15.93747814 -60.04135594 18.23646889 -66.1953125 25.5546875 C-74.80182879 37.63883683 -74.35156221 50.43950761 -74.51171875 64.74609375 C-74.53232717 66.30265302 -74.55332455 67.85920719 -74.57469177 69.41575623 C-74.6295115 73.4844648 -74.67909514 77.55322046 -74.72753906 81.62200928 C-74.77804961 85.78515747 -74.83358036 89.94823848 -74.88867188 94.11132812 C-74.9957619 102.25905897 -75.09684822 110.40684785 -75.1953125 118.5546875 C-84.1053125 118.5546875 -93.0153125 118.5546875 -102.1953125 118.5546875 C-102.21785949 102.14359758 -102.23629165 85.73252081 -102.24712467 69.32141972 C-102.25228764 61.70198577 -102.25933034 54.08256211 -102.27075195 46.46313477 C-102.28069878 39.82439923 -102.28716592 33.18567113 -102.28940099 26.54692835 C-102.29070811 23.02964414 -102.29379397 19.51238124 -102.30104256 15.99510384 C-102.30905639 12.07493812 -102.30930364 8.15479351 -102.30883789 4.23461914 C-102.31243317 3.06002136 -102.31602844 1.88542358 -102.31973267 0.67523193 C-102.31767067 -0.91710518 -102.31767067 -0.91710518 -102.31556702 -2.54161072 C-102.31648881 -3.46985625 -102.3174106 -4.39810179 -102.31836033 -5.35447598 C-102.1953125 -7.4453125 -102.1953125 -7.4453125 -101.1953125 -8.4453125 C-99.26863743 -8.53279457 -97.33879389 -8.55228584 -95.41015625 -8.54296875 C-93.65541992 -8.53813477 -93.65541992 -8.53813477 -91.86523438 -8.53320312 C-90.01768555 -8.52063477 -90.01768555 -8.52063477 -88.1328125 -8.5078125 C-86.27946289 -8.50104492 -86.27946289 -8.50104492 -84.38867188 -8.49414062 C-81.32417133 -8.48230858 -78.25976529 -8.46582423 -75.1953125 -8.4453125 C-74.23460816 -5.56319948 -74.08949367 -3.74681206 -74.1328125 -0.7578125 C-74.14183594 0.05042969 -74.15085937 0.85867188 -74.16015625 1.69140625 C-74.17175781 2.30628906 -74.18335938 2.92117188 -74.1953125 3.5546875 C-71.81270786 3.78192937 -71.81270786 3.78192937 -69.4453125 0.9921875 C-50.19813512 -15.85409457 -19.79603152 -15.90274012 0 0 Z " fill="#313F7C" transform="translate(432.1953125,737.4453125)"/>
<path d="M0 0 C0.68992538 -0.00287018 1.37985077 -0.00574036 2.09068298 -0.00869751 C3.54036283 -0.01072769 4.99007072 -0.0052714 6.43969727 0.00732422 C8.64987694 0.02341954 10.85823525 0.00742928 13.06835938 -0.01171875 C14.48307692 -0.00973661 15.89779334 -0.00589353 17.3125 0 C18.58875244 0.00338379 19.86500488 0.00676758 21.17993164 0.01025391 C26.05473556 0.56520044 29.26368093 2.5706343 32.33984375 6.3359375 C35.35741835 10.44319182 35.7122154 13.3325381 35.73701477 18.34332275 C35.74417007 19.33854446 35.75132538 20.33376617 35.75869751 21.35914612 C35.76138641 22.44493454 35.76407532 23.53072296 35.7668457 24.64941406 C35.7767025 26.37202705 35.7767025 26.37202705 35.78675842 28.12944031 C35.80648084 31.93264837 35.81815129 35.73581697 35.828125 39.5390625 C35.83220053 40.83828392 35.83627605 42.13750534 35.84047508 43.47609711 C35.85918097 49.64305952 35.87374822 55.81000219 35.88208705 61.97698712 C35.89185424 69.08183133 35.91816488 76.18636355 35.95858794 83.29109788 C35.99245261 89.45591779 36.00423739 95.62060709 36.00829124 101.78551483 C36.01316118 104.40254584 36.02478665 107.01957342 36.04332924 109.63654327 C36.06768304 113.30124223 36.06676196 116.96512766 36.05981445 120.62988281 C36.07262451 121.70757431 36.08543457 122.78526581 36.09863281 123.89561462 C36.05498185 130.22278872 35.31718886 135.15489008 31.58984375 140.3984375 C26.84593332 144.74125929 22.60229116 145.04325207 16.46484375 145.1484375 C15.6253418 145.17518555 14.78583984 145.20193359 13.92089844 145.22949219 C12.24600675 145.27903758 10.57083373 145.31994015 8.89550781 145.3515625 C6.90485872 145.39203313 4.91503378 145.46985797 2.92578125 145.5546875 C-4.69597637 145.78623457 -9.37416377 145.03843096 -15.28515625 139.8984375 C-18.26664947 136.39079842 -18.53659529 133.8252136 -18.5640564 129.3772583 C-18.57265686 128.33989532 -18.58125732 127.30253235 -18.59011841 126.23373413 C-18.59437836 125.0960257 -18.59863831 123.95831726 -18.60302734 122.78613281 C-18.61120483 121.58749603 -18.61938232 120.38885925 -18.62780762 119.15390015 C-18.65266713 115.17812432 -18.66933233 111.20238651 -18.68359375 107.2265625 C-18.68895493 105.85631046 -18.69433245 104.48605849 -18.6997261 103.11580658 C-18.72135031 97.41453081 -18.74008575 91.71325783 -18.7513485 86.01195145 C-18.76758039 77.84977315 -18.80074417 69.68807141 -18.85774934 61.52607274 C-18.8964922 55.78242595 -18.91598631 50.0389064 -18.92126906 44.2951324 C-18.92491682 40.86692028 -18.93687511 37.43921683 -18.9693718 34.01114655 C-19.00094565 30.18316846 -19.00107078 26.35639412 -18.99365234 22.52832031 C-19.01005768 21.3987088 -19.02646301 20.26909729 -19.04336548 19.10525513 C-18.98842226 12.17901664 -18.15565105 8.538794 -13.41015625 3.3984375 C-8.93692681 0.39584309 -5.32658588 0.01411016 0 0 Z " fill="#3B72FE" transform="translate(305.41015625,478.6015625)"/>
<path d="M0 0 C0.88945312 0.00322266 1.77890625 0.00644531 2.6953125 0.00976562 C4.07589844 0.02233398 4.07589844 0.02233398 5.484375 0.03515625 C6.88816406 0.04192383 6.88816406 0.04192383 8.3203125 0.04882812 C10.62506541 0.06058707 12.92968727 0.07702199 15.234375 0.09765625 C17.32813589 3.51341634 17.41308345 5.99497058 17.2109375 9.95703125 C17.13359375 11.62958984 17.13359375 11.62958984 17.0546875 13.3359375 C16.99023438 14.49480469 16.92578125 15.65367187 16.859375 16.84765625 C16.77429688 18.60916016 16.77429688 18.60916016 16.6875 20.40625 C16.54614572 23.30401272 16.39474281 26.20089374 16.234375 29.09765625 C14.69716797 28.85789062 14.69716797 28.85789062 13.12890625 28.61328125 C1.98140311 27.13738314 -8.72629593 27.24565868 -18.140625 33.97265625 C-26.21437838 40.58729758 -30.22269753 48.85478109 -31.765625 59.09765625 C-32.08293067 64.40899601 -32.11407405 69.71639206 -32.14453125 75.03515625 C-32.16073064 76.56690506 -32.17791315 78.09864376 -32.19602966 79.63037109 C-32.2414218 83.63457582 -32.27639389 87.63879443 -32.30822754 91.64312744 C-32.36040557 98.07975178 -32.42511513 104.51622931 -32.49644279 110.95266724 C-32.51930203 113.20012049 -32.53554506 115.4475546 -32.55116272 117.69506836 C-32.56455973 119.06103742 -32.57817368 120.42700438 -32.59204102 121.79296875 C-32.60155289 122.98937988 -32.61106476 124.18579102 -32.62086487 125.41845703 C-32.765625 128.09765625 -32.765625 128.09765625 -33.765625 129.09765625 C-42.345625 129.09765625 -50.925625 129.09765625 -59.765625 129.09765625 C-59.765625 87.18765625 -59.765625 45.27765625 -59.765625 2.09765625 C-50.855625 2.09765625 -41.945625 2.09765625 -32.765625 2.09765625 C-32.270625 10.51265625 -32.270625 10.51265625 -31.765625 19.09765625 C-30.734375 17.88078125 -29.703125 16.66390625 -28.640625 15.41015625 C-21.13318866 6.89873142 -11.75080987 -0.0753257 0 0 Z " fill="#2F3C7A" transform="translate(139.765625,726.90234375)"/>
<path d="M0 0 C0.75414185 -0.0038269 1.50828369 -0.00765381 2.28527832 -0.01159668 C3.8720026 -0.01430594 5.45877229 -0.00701395 7.04541016 0.00976562 C9.46228413 0.03119268 11.87618628 0.00993381 14.29296875 -0.015625 C15.84115234 -0.01298154 17.38933409 -0.00785619 18.9375 0 C19.65329224 -0.00809692 20.36908447 -0.01619385 21.10656738 -0.02453613 C26.1896283 0.06958906 29.10777527 1.25433545 32.96875 4.53125 C36.00781175 8.59702561 36.34736304 11.60505146 36.35693359 16.62890625 C36.36219055 17.323862 36.36744751 18.01881775 36.37286377 18.73483276 C36.3860173 21.0213703 36.37734272 23.30720595 36.3671875 25.59375 C36.36920958 27.18888482 36.37212214 28.78401873 36.37588501 30.37915039 C36.38030205 33.71802596 36.37389745 37.05666033 36.35986328 40.39550781 C36.34277158 44.66945089 36.35261611 48.94282875 36.37058067 53.2167511 C36.38143538 56.50936114 36.37796447 59.80183778 36.3701973 63.0944519 C36.36819995 64.67007515 36.37063821 66.24571061 36.37763596 67.82131958 C36.38527847 70.02573605 36.37360828 72.22924468 36.35693359 74.43359375 C36.35454681 75.68648193 36.35216003 76.93937012 36.34970093 78.23022461 C35.77977943 83.16872243 34.04469492 85.6304589 30.28125 88.78125 C23.2612658 92.4899209 14.68042673 91.74292997 6.90625 91.78125 C5.33133789 91.8121875 5.33133789 91.8121875 3.72460938 91.84375 C-3.89939914 91.88213393 -9.41716306 91.32754624 -15.18139648 85.91137695 C-19.91980473 80.18794416 -18.84979134 72.55529099 -18.7578125 65.52734375 C-18.75677385 63.95988466 -18.75781486 62.39242295 -18.76083374 60.82496643 C-18.76065486 57.54900934 -18.7399154 54.27404249 -18.70361328 50.99829102 C-18.65819998 46.80947428 -18.65716243 42.62209983 -18.67064857 38.43310452 C-18.67734613 35.19956244 -18.66403547 31.9663464 -18.64439011 28.73286629 C-18.63671942 27.18878958 -18.63437582 25.64467651 -18.6375618 24.10058403 C-18.63830762 21.93932421 -18.61294896 19.77988177 -18.58056641 17.61889648 C-18.57135162 16.39202621 -18.56213684 15.16515594 -18.55264282 13.90110779 C-17.74029607 8.65076121 -15.26145658 5.57959235 -11.28320312 2.18945312 C-7.42877938 0.22404426 -4.23009139 -0.0478501 0 0 Z " fill="#46B977" transform="translate(226.03125,532.46875)"/>
<path d="M0 0 C8.58 0 17.16 0 26 0 C26 56.43 26 112.86 26 171 C17.42 171 8.84 171 0 171 C-0.15593217 156.53013065 -0.30499264 142.06022853 -0.4429636 127.59017658 C-0.50728885 120.86451091 -0.57437906 114.13890035 -0.64819336 107.41333008 C-1.03907049 71.5855484 -0.89188313 35.81947734 0 0 Z " fill="#2E3C7A" transform="translate(639,685)"/>
<path d="M0 0 C1.49356522 -0.01029488 1.49356522 -0.01029488 3.01730347 -0.02079773 C6.30538229 -0.03908373 9.5929848 -0.03522554 12.88110352 -0.02954102 C15.1688706 -0.03410195 17.45663631 -0.03940725 19.74440002 -0.04542542 C24.53847826 -0.05436008 29.33238995 -0.05192924 34.12646484 -0.04199219 C40.26792179 -0.03050238 46.40880379 -0.05071291 52.5501852 -0.07990932 C57.27455798 -0.09826146 61.99879274 -0.09798078 66.72319221 -0.0922718 C68.98739491 -0.09211847 71.25160689 -0.09817285 73.51577568 -0.11056328 C76.6827583 -0.12545226 79.84867556 -0.11481076 83.015625 -0.09765625 C83.94932419 -0.10732422 84.88302338 -0.11699219 85.84501648 -0.12695312 C92.62583533 -0.05010049 96.03334034 1.36488331 100.88500977 6.21655273 C103.31047445 10.68451399 103.40318852 14.25640294 102.01000977 19.09155273 C99.70019665 23.04058806 98.12954395 24.29732565 94.07250977 26.40405273 C90.68444715 26.96730024 87.35216402 26.94090837 83.92382812 26.90576172 C82.91661209 26.9111647 81.90939606 26.91656769 80.87165833 26.9221344 C77.55158862 26.93461337 74.23238737 26.91813667 70.91235352 26.90014648 C68.60120091 26.90030148 66.29004805 26.90179053 63.97889709 26.90455627 C59.13946009 26.90593986 54.30031961 26.89338756 49.4609375 26.87060547 C43.25782055 26.84220544 37.05519565 26.84496319 30.8520422 26.85769558 C26.08138323 26.86464988 21.31083801 26.85686651 16.54019356 26.84443855 C14.25284829 26.83992278 11.96549083 26.83958835 9.67814445 26.84350395 C6.48244046 26.84641405 3.28741512 26.82991862 0.09179688 26.80810547 C-0.85327728 26.81260712 -1.79835144 26.81710876 -2.77206421 26.82174683 C-8.72230753 26.75425948 -12.07901408 25.84560372 -16.67749023 21.90405273 C-19.23517095 18.83483588 -19.26555991 15.33029065 -19.20874023 11.46655273 C-18.62344367 7.17437792 -16.16845723 4.41121286 -12.90342712 1.76133728 C-8.59946054 -0.20164364 -4.67895472 -0.02250986 0 0 Z " fill="#2E3C7A" transform="translate(354.927490234375,240.595947265625)"/>
<path d="M0 0 C1.30155029 -0.01268417 2.60310059 -0.02536835 3.9440918 -0.03843689 C5.35205241 -0.0363854 6.76001192 -0.03339734 8.16796875 -0.02954102 C9.62475833 -0.03410675 11.08154575 -0.03941349 12.53833008 -0.04542542 C15.58456194 -0.05433819 18.63053137 -0.05195397 21.67675781 -0.04199219 C25.57069992 -0.03049573 29.46373606 -0.0507325 33.3575592 -0.07990932 C36.36370547 -0.0982977 39.36963556 -0.09797386 42.37582397 -0.0922718 C43.81107862 -0.09211896 45.24634825 -0.09813299 46.68154907 -0.11056328 C48.69129416 -0.12552107 50.70118895 -0.11214155 52.7109375 -0.09765625 C54.42253052 -0.097407 54.42253052 -0.097407 56.16870117 -0.09715271 C60.97952256 0.65947915 64.14379503 2.95004427 67.23046875 6.65405273 C68.72411476 10.30518742 69.0273435 13.55398392 68.35546875 17.40405273 C65.89928592 22.41088696 63.43354956 24.29272457 58.35546875 26.40405273 C55.19993591 26.78500366 55.19993591 26.78500366 51.78686523 26.79223633 C50.502108 26.80169281 49.21735077 26.81114929 47.8936615 26.82089233 C46.50462533 26.81552271 45.11559201 26.80936978 43.7265625 26.80249023 C42.28979851 26.80451333 40.85303552 26.80742674 39.41627502 26.81118774 C36.41291475 26.81559861 33.40982307 26.80921937 30.40649414 26.79516602 C26.56414427 26.77805904 22.72242244 26.78793217 18.88009548 26.80588341 C15.9160339 26.81674177 12.9521204 26.81326584 9.98805428 26.80550003 C8.5715229 26.80350448 7.15497791 26.80593457 5.73846245 26.81293869 C3.75720362 26.82058782 1.77589739 26.806855 -0.20532227 26.79223633 C-1.33084 26.78984955 -2.45635773 26.78746277 -3.61598206 26.78500366 C-7.9018186 26.24590282 -10.46639339 24.25493007 -13.89453125 21.77905273 C-16.53065879 18.20145108 -16.94829007 14.79744243 -16.64453125 10.40405273 C-15.41588981 6.42813852 -13.50423721 3.92861543 -9.9074707 1.73399353 C-6.3465477 0.28259768 -3.83141728 0.01814195 0 0 Z " fill="#313F7C" transform="translate(352.64453125,183.595947265625)"/>
<path d="M0 0 C1.37961914 -0.01740234 1.37961914 -0.01740234 2.78710938 -0.03515625 C9.36553115 -0.0067806 13.92885961 0.86635961 18.75 5.6875 C21.31387926 9.77071512 21.77451789 12.72361235 20.8125 17.4375 C18.94704425 21.42279183 16.41204456 24.38772772 12.4375 26.375 C8.35981589 26.64575166 4.27315152 26.60665813 0.1875 26.625 C-0.94558594 26.645625 -2.07867187 26.66625 -3.24609375 26.6875 C-13.72758281 26.73665118 -13.72758281 26.73665118 -18.5625 23.375 C-22.00258759 19.59090365 -22.08133492 15.65576668 -21.90625 10.74609375 C-21.39503336 7.21986078 -20.26810315 5.66435651 -17.5625 3.375 C-11.65152309 0.2034445 -6.63919153 -0.08409954 0 0 Z " fill="#3B72FE" transform="translate(295.5625,240.625)"/>
<path d="M0 0 C1.07185547 -0.02449219 2.14371094 -0.04898438 3.24804688 -0.07421875 C9.46253433 -0.09730663 13.43978021 0.0340605 18.0625 4.375 C20.96127687 8.5799118 20.93512039 13.47027158 20.0625 18.375 C18.21630604 21.70773975 16.01014946 24.75943678 12.26806641 25.94213867 C7.95765048 26.78809477 3.5659057 26.60216607 -0.8125 26.625 C-2.28396484 26.6559375 -2.28396484 26.6559375 -3.78515625 26.6875 C-10.59528393 26.72426182 -15.02509757 25.90419158 -20.3125 21.3125 C-22.69434839 17.00685098 -22.83015847 13.18458227 -21.9375 8.375 C-20.25674598 5.00660361 -18.02363445 2.90412784 -14.60717773 1.23974609 C-9.83478667 -0.30609837 -4.97567797 0.00596247 0 0 Z " fill="#46B977" transform="translate(295.9375,183.625)"/>
</svg>